<?xml version="1.0" standalone="no"?>
<!DOCTYPE svg PUBLIC "-//W3C//DTD SVG 1.1//EN" "http://www.w3.org/Graphics/SVG/1.1/DTD/svg11.dtd" >
<svg xmlns="http://www.w3.org/2000/svg">
<metadata>Generated by IcoMoon</metadata>
<defs>
<font id="icomoon" horiz-adv-x="1024">
<font-face units-per-em="1024" ascent="960" descent="-64" />
<missing-glyph horiz-adv-x="1024" />
<glyph unicode="&#x20;" horiz-adv-x="512" d="" />
<glyph unicode="&#xe900;" glyph-name="zoom-out" d="M711.111 334.222h-44.942l-15.929 15.36c55.751 64.853 89.316 149.049 89.316 240.64 0 204.231-165.547 369.778-369.778 369.778s-369.778-165.547-369.778-369.778c0-204.231 165.547-369.778 369.778-369.778 91.591 0 175.787 33.564 240.64 89.316l15.36-15.929v-44.942l284.444-283.876 84.764 84.764-283.876 284.444zM369.778 334.222c-141.653 0-256 114.347-256 256s114.347 256 256 256c141.653 0 256-114.347 256-256s-114.347-256-256-256zM398.222 618.667h-170.667v-56.889h284.444v56.889h-113.778z" />
<glyph unicode="&#xe901;" glyph-name="ban" d="M476.928 807.424c-107.691-20.48-180.139-119.253-165.675-225.749 10.027-73.856 60.203-137.301 129.067-163.157 25.088-9.429 41.472-12.203 71.68-12.203s46.592 2.773 71.68 12.203c36.148 14.421 66.311 37.314 89.040 66.314l0.347 0.46c18.752 25.057 32.364 55.068 38.651 87.686l0.218 1.359c3.072 18.304 2.517 55.851-1.024 72.491-16.64 78.080-72.789 137.216-149.419 157.397-13.397 3.541-21.12 4.395-44.373 4.864-18.859 0.427-32.128-0.128-40.192-1.664zM554.667 762.112c57.856-16.427 103.509-66.176 114.389-124.672 2.944-15.744 2.517-46.080-0.896-62.293-11.051-52.992-49.963-98.347-100.181-116.821-20.779-7.595-30.677-9.301-55.125-9.387-26.069-0.085-39.381 2.347-61.056 11.093-36.779 14.933-69.888 46.805-85.888 82.816-15.232 34.347-17.408 80.64-5.419 115.925 18.432 54.357 67.413 96.725 123.349 106.667 15.147 2.688 56.405 0.768 70.827-3.328zM744.107 339.413c-38.827-7.467-71.893-27.349-94.677-56.96-29.013-37.675-38.101-89.6-23.68-135.381 7.552-23.936 17.835-40.917 36.224-59.648 23.206-24.095 54.616-40.145 89.723-43.642l0.603-0.049c4.66-0.515 10.064-0.809 15.537-0.809 66.367 0 122.633 43.244 142.16 103.091l0.298 1.057c4.248 13.302 6.697 28.603 6.697 44.476 0 34.297-11.431 65.924-30.691 91.279l0.272-0.373c-14.043 18.219-31.837 32.846-52.293 42.879l-0.87 0.385c-20.395 10.24-33.963 13.355-61.141 13.952-3.401 0.141-7.393 0.221-11.404 0.221-5.894 0-11.748-0.173-17.557-0.514l0.801 0.038zM337.067 317.995c-102.827-11.691-184.277-100.096-187.221-203.093-0.427-14.549-0.043-17.152 3.072-21.333 5.205-7.040 15.744-10.069 24.832-7.125 11.392 3.669 13.525 8.107 15.275 31.744 3.157 42.197 18.176 75.989 47.531 106.795 21.325 22.181 48.532 38.558 79.114 46.625l1.185 0.266c15.829 4.224 17.92 4.352 88.832 5.333 65.195 0.896 73.088 1.28 77.141 3.968 7.68 5.035 9.856 20.395 4.352 30.848-3.883 7.424-9.6 7.979-76.843 7.765-34.987-0.128-69.76-0.939-77.269-1.792zM792.235 295.936c9.344-1.92 33.792-12.672 33.792-14.848 0-0.64-33.024-34.219-73.429-74.581-59.776-59.733-73.771-72.917-75.221-70.827-4.139 5.888-11.477 23.68-13.269 32.085-1.174 7.326-1.845 15.773-1.845 24.376 0 8.503 0.655 16.853 1.918 25.001l-0.116-0.908c7.467 36.139 40.704 70.101 77.483 79.189 10.837 2.688 38.912 2.944 50.688 0.512zM864.213 237.653c7.296-15.445 9.6-26.283 9.6-45.653 0-20.181-2.304-30.421-10.752-47.787-13.839-27.006-37.924-47.108-66.992-55.367l-0.763-0.185c-14.549-3.797-40.064-3.797-54.485 0-11.264 2.987-30.848 11.989-30.848 14.165 0 1.621 145.493 147.2 147.115 147.2 0.683 0 3.883-5.547 7.125-12.373z" />
<glyph unicode="&#xe902;" glyph-name="calander1" horiz-adv-x="983" d="M308.019 785.715v-30.106l-39.731-0.86c-30.106-0.655-42.107-1.556-49.562-3.645-26.788-7.496-51.118-28.058-63.98-54.067-11.1-22.364-10.527-4.956-10.527-315.802l-0.041-281.395 296.96 0.041c173.179 0.041 301.752 0.696 308.429 1.597 16.22 2.13 26.337 5.489 38.257 12.698 21.012 12.698 38.666 34.57 46.572 57.754l3.645 10.65 0.451 239.575c0.492 265.421 0.942 252.396-10.199 274.883-12.861 26.010-37.192 46.572-63.98 54.067-7.455 2.089-19.456 2.99-49.562 3.645l-39.731 0.86v60.211h-39.322v-60.621h-288.358v60.621h-39.322v-30.106zM308.019 683.93v-30.31h39.322v60.621h288.358v-60.621h39.322v60.785l38.912-0.492c38.216-0.492 39.076-0.573 48.21-4.833 18.473-8.684 31.908-26.173 35.635-46.326 0.942-5.366 1.761-23.593 1.761-40.55v-30.843h-616.038v30.843c0 33.956 1.597 46.203 7.537 57.917 7.414 14.705 17.367 23.716 33.26 30.269 8.643 3.564 11.305 3.768 46.449 3.809l37.274 0.041v-30.31zM799.539 376.197c0-118.333-0.573-177.275-1.761-183.91-3.959-20.596-17.273-37.431-35.252-46.158l-0.383-0.168-9.298-4.342-569.344-0.86v409.641h616.038v-174.203zM308.019 427.52v-19.661h39.322v39.322h-39.322v-19.661zM471.859 427.52v-19.661h39.322v39.322h-39.322v-19.661zM635.699 427.52v-19.661h39.322v39.322h-39.322v-19.661zM308.019 263.68v-19.661h39.322v39.322h-39.322v-19.661zM471.859 263.68v-19.661h39.322v39.322h-39.322v-19.661zM635.699 263.68v-19.661h39.322v39.322h-39.322v-19.661z" />
<glyph unicode="&#xe903;" glyph-name="chart" d="M85.888 870.528c-9.668-2.806-17.531-9.168-22.24-17.542l-0.096-0.186-4.672-8v-793.6l4.672-8c2.731-4.545 6.050-8.414 9.913-11.654l0.071-0.058c12.48-8.896-10.24-8.448 438.4-8.448 466.176 0 429.12-1.024 442.112 11.968 9.088 9.088 12.672 21.504 11.52 40.064-1.28 19.904-7.040 29.952-21.76 37.824-5.76 3.072-19.456 3.2-398.528 4.032l-392.512 0.832-0.896 363.52-0.832 363.52-4.672 8c-4.888 8.767-13.048 15.212-22.787 17.736l-0.253 0.056c-5.583 1.383-11.992 2.176-18.586 2.176-6.691 0-13.191-0.817-19.407-2.356l0.553 0.116zM902.848 710.72c-5.888-2.688-33.6-29.376-119.040-114.688l-111.296-111.232-50.816 50.368c-46.912 46.528-51.712 50.816-62.848 55.808-11.152 5.163-24.204 8.174-37.959 8.174-14.345 0-27.924-3.275-40.032-9.118l0.551 0.24c-12.608-5.952-16.256-9.472-150.464-143.744-96.384-96.384-138.496-139.648-140.672-144.448-7.808-17.216-3.648-33.728 12.672-50.048 11.648-11.648 20.672-16.128 32.576-16.32 18.624-0.192 15.104-3.264 156.16 137.408l129.728 129.408 50.304-50.112c44.864-44.608 51.584-50.624 61.824-55.424 11.445-5.293 24.837-8.379 38.951-8.379 14.059 0 27.402 3.063 39.4 8.558l-0.591-0.242c10.688 4.992 19.648 13.568 130.56 124.224 86.72 86.592 120.128 120.96 122.816 126.528 2.345 5.020 3.714 10.899 3.714 17.097 0 5.749-1.177 11.224-3.304 16.195l0.102-0.269c-6.955 12.127-16.635 21.972-28.248 28.92l-0.36 0.2c-5.168 2.723-11.293 4.321-17.791 4.321-5.774 0-11.254-1.262-16.178-3.525l0.241 0.099z" />
<glyph unicode="&#xe904;" glyph-name="clock-time" d="M478.398 787.627c-83.967-8.61-157.743-46.571-212.079-103.301l-0.117-0.123c-24.655-25.005-45.236-54.11-60.612-86.185l-0.828-1.917c-81.882-169.567-10.695-373.305 159.137-455.339 43.265-21.46 94.217-34.018 148.101-34.018s104.835 12.557 150.087 34.904l-1.986-0.887c169.794 81.996 240.981 285.81 159.137 455.339-16.205 33.992-36.785 63.098-61.477 88.139l0.037-0.037c-49.089 51.467-114.078 87.379-187.065 99.843l-1.996 0.282c-22.907 3.944-68.646 5.613-90.34 3.3zM567.106 731.42c133.885-26.904 233.318-143.55 233.32-283.421v0c0-0.106 0-0.232 0-0.358 0-119.867-73.178-222.642-177.296-266.087l-1.904-0.705c-38.078-15.55-64.133-20.404-109.227-20.404-36.523 0-45.587 1.062-75.093 8.799-98.342 25.903-178.404 106.306-204.004 204.914-10.278 39.519-11.947 89.809-4.248 128.948 22.566 115.105 114.423 206.886 228.314 228.087 26.207 4.892 27.079 4.968 60.985 4.399 22.983-0.379 35.385-1.441 49.152-4.172zM488.713 616.808c-8.464-2.989-14.942-9.704-17.545-18.12l-0.053-0.198c-1.327-4.968-1.745-38.229-1.403-111.654l0.455-104.524 4.020-6.447c7.927-12.781 4.324-12.326 101.831-12.326 86.471 0 87.078 0 92.994 3.717 7.531 4.593 12.483 12.764 12.483 22.091 0 0.18-0.002 0.36-0.006 0.539v-0.027c0.030 0.451 0.047 0.978 0.047 1.509 0 9.751-5.75 18.159-14.044 22.018l-0.15 0.062c-7.509 3.793-8.42 3.831-76.307 3.831h-68.684l-0.493 91.743-0.493 91.705-4.096 5.765c-3.944 5.575-15.436 12.212-20.632 11.985-3.009-0.391-5.691-0.976-8.285-1.762l0.359 0.094z" />
<glyph unicode="&#xe905;" glyph-name="close" d="M331.52 637.44c-10.197-6.187-14.763-17.664-10.496-26.155 1.024-2.048 37.717-39.595 81.493-83.499l79.573-79.787-80.512-80.64c-53.803-53.888-80.896-82.219-81.664-85.333-1.707-6.955 0.469-13.099 6.741-19.371s12.416-8.448 19.371-6.741c3.115 0.768 31.445 27.861 85.333 81.664l80.64 80.512 80.64-80.512c53.888-53.803 82.219-80.896 85.333-81.664 6.955-1.707 13.099 0.469 19.371 6.741s8.448 12.416 6.741 19.371c-0.768 3.115-27.861 31.445-81.664 85.333l-80.512 80.64 80.512 80.64c53.803 53.888 80.896 82.219 81.664 85.333 1.707 6.955-0.469 13.099-6.741 19.371s-12.416 8.448-19.371 6.741c-3.115-0.768-31.445-27.861-85.333-81.664l-80.64-80.512-79.787 79.573c-43.904 43.776-81.451 80.469-83.499 81.493-5.504 2.773-10.965 2.304-17.195-1.536z" />
<glyph unicode="&#xe906;" glyph-name="copy" horiz-adv-x="983" d="M222.536 794.358c-35.389-4.628-67.584-33.874-75.817-68.813-3.727-15.77-3.727-393.503 0-409.272 6.799-29 32.399-56.607 61.112-65.946 9.38-3.031 15.811-3.645 46.531-4.26l35.635-0.778v-27.361c0-33.096 1.597-42.844 9.789-59.924 12.477-24.591 33.514-43.327 59.102-52.524l0.741-0.233 13.107-4.588h190.054c212.132 0 198.697-0.696 221.798 11.51 22.036 11.633 41.902 34.693 49.725 57.795l3.727 10.977 0.451 188.744c0.492 209.879 0.86 202.097-10.445 224.461-12.567 23.615-33.169 41.559-58.082 50.399l-0.737 0.228c-11.919 4.014-15.933 4.506-44.646 5.202l-31.539 0.778-0.041 32.154c0 35.758-1.679 46.367-9.708 62.341-9.912 19.62-32.604 39.076-54.149 46.449l-10.65 3.645-192.512 0.205c-105.882 0.164-197.427-0.41-203.448-1.188zM620.012 751.841c11.51-4.301 22.733-15.155 28.508-27.402 4.219-9.011 4.383-10.609 4.915-41.656l0.532-32.317-281.231-0.942-13.107-4.465c-17.309-5.962-31.958-15.872-43.412-28.696l-0.087-0.099c-11.592-12.616-21.709-32.154-24.371-46.899-1.147-6.39-1.761-56.566-1.761-146.35v-136.643l-34.816 0.532c-32.604 0.492-35.267 0.778-41.861 4.301-10.704 6.142-19.166 15.131-24.5 25.941l-0.158 0.355-4.342 9.257v194.15c0 183.296 0.164 194.519 2.949 200.704 4.669 10.445 10.568 17.981 18.35 23.593 14.418 10.363 1.679 9.748 212.5 9.871 190.915 0.123 192.963 0.082 201.892-3.236zM763.822 603.812c18.432-9.339 30.679-25.641 34.079-45.384 1.229-7.291 1.638-65.249 1.311-189.891l-0.492-179.405-3.809-9.462c-6.597-14.531-17.654-26.077-31.398-33.12l-0.387-0.18-10.281-4.751-185.713-0.451c-201.277-0.451-193.413-0.778-207.954 8.438-10.398 6.642-18.598 15.894-23.795 26.848l-0.167 0.39-5.079 10.65v375.194l4.383 9.38c7.864 16.794 19.374 27.853 35.512 34.202 7.25 2.826 16.998 2.99 196.035 2.621l188.416-0.328 9.339-4.751z" />
<glyph unicode="&#xe907;" glyph-name="dashboard" d="M228.693 807.125c-37.155-10.451-65.758-39.295-75.686-75.829l-0.175-0.758c-2.304-8.875-2.645-32.085-2.645-177.92v-167.765h339.627v424.96l-125.867-0.128c-104.277-0.085-127.488-0.512-135.253-2.56zM534.187 682.709v-127.189h339.755l-0.512 86.613c-0.555 86.101-0.597 86.699-4.565 97.451-4.949 13.312-18.176 33.493-27.605 41.984-10.786 9.53-23.32 17.408-37.008 23.059l-0.88 0.322-10.624 3.968-258.56 0.981v-127.189zM448 597.333v-170.667h-256l-0.427 136.533c-0.256 77.141 0.213 141.525 1.109 148.011 4.011 29.227 25.728 51.84 53.675 55.936 4.821 0.725 52.181 1.195 105.216 1.067l96.427-0.213v-170.667zM791.381 763.52c16.981-7.125 29.013-19.2 36.139-36.139l4.437-10.581v-59.733l0.043-59.733h-256l-0.427 83.627c-0.256 45.995-0.085 84.651 0.384 85.845 0.683 1.835 20.096 2.133 102.869 1.707l101.973-0.512 10.581-4.48zM534.187 298.624v-212.523l258.56 0.981 10.837 4.053c13.355 4.949 33.493 18.219 41.984 27.605 9.301 10.283 18.901 25.813 23.424 37.888l3.968 10.624 0.939 343.893h-339.712v-212.523zM832 324.267v-145.067l-4.48-10.581c-7.125-16.981-19.157-29.013-36.139-36.139l-10.581-4.48h-204.8l-0.427 168.96c-0.256 92.928-0.085 169.941 0.384 171.093 0.64 1.707 27.221 2.048 128.427 1.707l127.616-0.427v-145.067zM150.187 213.333v-127.147h339.627v254.293h-339.627v-127.147zM448 213.333v-85.333h-256l-0.427 83.627c-0.256 45.995-0.085 84.608 0.341 85.76 0.683 1.707 27.264 2.048 128.469 1.707l127.616-0.427v-85.333z" />
<glyph unicode="&#xe908;" glyph-name="delete" d="M376.031 789.882c-5.61-1.113-12.021-8.459-13.267-15.271-2.449-12.911 3.117-23.151 14.291-26.223 8.237-2.315 261.654-2.315 269.891 0 9.706 2.671 13.891 8.415 14.158 19.233 0.029 0.527 0.046 1.144 0.046 1.765 0 4.175-0.751 8.175-2.126 11.871l0.077-0.235c-5.12 9.572 1.469 9.127-144.562 9.394-74.129 0.089-136.459-0.134-138.507-0.534zM201.906 656.184c-8.949-3.606-13.223-20.302-7.88-30.675 4.274-8.192 9.305-10.195 25.645-10.24h14.024l0.979-446.286 3.962-11.13c6.144-17.007 13.579-28.806 26.001-40.96 18.521-18.12 37.443-27.559 61.885-30.72 16.072-2.093 354.883-2.093 370.955 0 24.442 3.161 43.364 12.6 61.885 30.72 12.377 12.154 19.857 23.908 25.956 40.96l4.007 11.13 0.979 445.93 15.983 0.623c18.298 0.668 21.994 2.671 24.932 13.668 0.665 2.196 1.048 4.72 1.048 7.333 0 6.051-2.053 11.622-5.5 16.055l0.044-0.059-3.918 4.541-308.625 0.312c-176.44 0.178-310.227-0.312-312.365-1.202zM745.784 397.245c0-154.401-0.534-220.026-1.87-224.879-4.764-17.096-21.994-34.326-40.381-40.381-8.904-2.938-19.857-3.117-191.533-3.117s-182.628 0.178-191.533 3.117c-18.387 6.055-35.617 23.285-40.381 40.381-1.336 4.853-1.87 70.478-1.87 224.879l-0.045 218.023h467.656l-0.045-218.023zM418.905 494.035c-3.67-1.377-6.803-3.422-9.394-6.011v0l-4.185-4.452-0.49-105.249c-0.312-57.878-0.045-108.544 0.534-112.551 0.762-4.548 2.535-8.582 5.083-12.005l-0.052 0.073c3.651-4.274 5.075-4.675 15.939-4.675 13.757 0 17.987 2.582 20.792 12.644 2.582 9.305 2.137 212.68-0.49 220.16-3.606 10.195-15.983 15.583-27.737 12.065zM589.557 493.946c-3.672-1.329-6.81-3.349-9.395-5.922l0.001 0.001-4.185-4.452-0.49-105.249c-0.267-57.878-0.045-108.544 0.534-112.551 0.758-4.553 2.548-8.59 5.125-12l-0.050 0.068c3.651-4.274 5.031-4.675 16.25-4.675s12.555 0.401 16.25 4.675c2.491 3.355 4.275 7.384 5.050 11.762l0.025 0.17c0.579 4.007 0.801 54.673 0.534 112.551l-0.534 105.249-4.141 4.408c-2.818 2.704-6.245 4.795-10.053 6.046l-0.187 0.053c-6.99 1.959-7.702 1.914-14.737-0.134z" />
<glyph unicode="&#xe909;" glyph-name="download" horiz-adv-x="983" d="M480.666 683.889c-2.918-1.571-5.281-3.842-6.918-6.595l-0.045-0.081c-1.311-2.949-1.843-45.67-1.843-153.477v-149.381l-47.186 47.063c-46.817 46.735-47.186 47.063-54.026 47.063-12.616 0-24.535-14.909-20.521-25.682 0.696-1.966 31.13-33.587 67.625-70.246l66.273-66.601 8.274 0.696 8.233 0.737 64.717 65.044c35.594 35.758 65.741 67.174 66.97 69.755 3.154 6.431 1.229 12.534-6.267 20.029-5.325 5.325-7.291 6.267-13.353 6.267h-7.086l-94.331-94.126v300.524l-4.588 5.161c-3.727 4.137-6.144 5.243-12.698 5.775-0.958 0.132-2.066 0.207-3.191 0.207-3.635 0-7.086-0.785-10.194-2.195l0.155 0.063zM268.698 346.051c-12.657-1.843-15.483-7.66-14.377-29.573 1.434-28.713 11.223-49.562 34.038-72.499 10.445-10.486 17.203-15.688 27.034-20.767 26.132-13.476 16.589-12.78 175.309-12.78 112.558 0 142.705 0.451 149.914 2.212 9.557 2.909 17.673 6.178 25.434 10.050l-0.94-0.425c13.148 6.308 17.572 9.503 29.491 21.545 23.347 23.634 32.645 43.786 34.079 74.056 0.86 17.326 0.86 17.367-3.891 22.692-4.26 4.751-5.734 5.325-13.885 5.366-0.418 0.018-0.907 0.028-1.4 0.028-4.076 0-7.988-0.7-11.623-1.987l0.244 0.075c-4.956-2.662-8.356-11.264-8.356-21.176 0-29.614-23.020-59.474-54.067-70.042-8.52-2.908-16.343-3.072-144.179-3.072h-135.168l-10.65 3.727c-14.775 5.206-27.103 14.271-36.157 25.993l-0.134 0.18c-9.074 11.619-14.928 26.15-16.002 41.993l-0.013 0.237c-1.311 13.885-3.318 19.456-7.946 21.791-3.828 1.638-8.282 2.59-12.958 2.59-1.337 0-2.656-0.078-3.952-0.229l0.158 0.015z" />
<glyph unicode="&#xe90a;" glyph-name="evaluation" d="M228.693 807.125c-37.238-10.443-65.891-39.393-75.732-76.045l-0.172-0.755c-2.347-9.216-2.603-41.173-2.219-286.72l0.469-276.352 4.053-10.837c4.992-13.355 18.261-33.493 27.648-41.984 10.88-9.813 26.24-19.115 38.784-23.467l11.435-3.925h558.080l11.648 4.011c13.739 4.736 33.963 17.792 42.88 27.691 9.521 10.796 17.409 23.326 23.097 37.001l0.327 0.887 3.968 10.624 0.939 376.491-5.035 5.035c-4.437 4.48-6.187 5.035-15.317 5.035-8.405 0-11.136-0.768-15.061-4.139l-4.779-4.096-0.853-183.211-0.853-183.168-4.48-10.581c-7.125-16.981-19.157-29.013-36.139-36.139l-10.581-4.48h-537.6l-10.581 4.48c-16.523 6.757-29.382 19.616-35.981 35.705l-0.157 0.434-4.48 10.581v537.6l4.48 10.581c7.125 16.981 19.157 29.013 36.139 36.139l10.581 4.48 409.045 1.707 4.096 4.779c3.371 3.925 4.139 6.656 4.139 15.061 0 9.088-0.597 10.88-4.992 15.275l-4.992 4.992-206.208-0.128c-174.507-0.085-207.659-0.469-215.595-2.56zM784.213 803.883c-3.755-1.408-7.211-2.56-7.637-2.56-2.56-0.085-146.005-145.451-149.077-151.083-3.499-6.443-3.712-9.003-3.712-44.757 0-50.133-4.437-45.696 45.696-45.696 33.579 0 38.613 0.341 43.904 3.157 8.32 4.395 147.84 143.701 152.363 152.149 4.821 8.96 5.077 26.368 0.555 34.987-4.096 7.765-44.544 48.171-52.011 51.968-5.154 2.335-11.175 3.696-17.515 3.696-4.482 0-8.806-0.68-12.873-1.943l0.307 0.082zM817.024 753.109c10.581-10.539 19.243-19.925 19.243-20.864s-3.627-5.376-8.064-9.856l-8.064-8.192-41.856 41.771 8.021 8.149c4.395 4.48 8.789 8.149 9.771 8.149 0.939 0 10.411-8.619 20.949-19.157zM747.093 641.28l-48.171-48.213h-41.856v41.771l96.384 96.469 41.856-41.771-48.213-48.256zM419.072 467.541c-10.58-6.825-19.397-13.103-27.931-19.73l0.88 0.658c-15.744-11.776-22.656-16-24.277-14.848-17.237 12.203-21.461 14.379-27.563 14.336-7.467-0.043-12.373-3.371-17.451-11.904-7.552-12.629-4.395-18.688 18.688-35.883 21.888-16.341 26.24-18.219 34.56-14.72 7.509 3.157 66.475 47.36 70.144 52.608 5.504 7.808 2.304 19.328-7.595 27.648-6.016 5.077-12.117 5.675-19.456 1.835zM543.36 445.312c-6.485-3.2-9.173-8.704-9.173-18.645 0-10.069 2.731-15.531 9.472-18.688 8.32-3.968 141.696-3.968 150.016 0 6.741 3.157 9.472 8.619 9.472 18.688s-2.731 15.531-9.472 18.688c-8.277 3.925-142.293 3.883-150.315-0.043zM419.072 296.875c-10.58-6.825-19.397-13.103-27.931-19.73l0.88 0.658c-15.744-11.776-22.656-16-24.277-14.848-17.237 12.203-21.461 14.379-27.563 14.336-7.467-0.043-12.373-3.371-17.451-11.904-7.552-12.629-4.395-18.688 18.688-35.883 21.888-16.341 26.24-18.219 34.56-14.72 7.509 3.157 66.475 47.36 70.144 52.608 5.504 7.808 2.304 19.328-7.595 27.648-6.016 5.077-12.117 5.675-19.456 1.835zM543.36 274.645c-6.485-3.2-9.173-8.704-9.173-18.645 0-10.069 2.731-15.531 9.472-18.688 8.32-3.968 141.696-3.968 150.016 0 6.741 3.157 9.472 8.619 9.472 18.688s-2.731 15.531-9.472 18.688c-8.277 3.925-142.293 3.883-150.315-0.043z" />
<glyph unicode="&#xe90b;" glyph-name="eye" horiz-adv-x="986" d="M465.579 711.737c-79.531-5.082-154.738-33.906-215.305-82.565-48.052-38.533-86.699-93.829-99.29-141.881-5.499-20.973-5.499-57.458 0-78.431 9.975-38.153 36.712-81.73 71.263-116.281 76.383-76.345 182.841-115.295 295.595-108.165 71.68 4.513 131.375 24.045 189.25 61.857 61.819 40.391 111.692 102.817 127.204 159.137 4.020 14.677 4.475 19.077 4.475 42.667 0 23.552-0.455 27.951-4.475 42.629-9.899 35.878-37.433 80.024-70.77 113.285-54.537 54.462-127.204 91.174-204.99 103.614-14.071 2.276-63.981 6.258-70.428 5.613-0.273-0.128-8.077-0.657-15.892-1.146l-6.636-0.333zM550.571 671.801c40.429-7.092 69.291-16.574 104.334-34.247 57.837-29.165 103.803-73.387 131.3-126.217 12.060-23.173 16.422-39.936 16.384-63.26-0.038-23.476-3.186-35.992-15.474-60.833-33.868-68.57-100.58-123.032-183.979-150.149-33.223-10.847-57.951-14.905-97.773-16.081-63.412-1.934-112.223 8.040-166.229 33.906-64.664 31.023-112.375 76.041-140.174 132.324-12.288 24.879-15.474 37.357-15.474 60.833 0 23.438 3.186 35.916 15.474 60.795 41.946 84.916 137.671 149.694 241.474 163.385l18.925 2.503c11.416 1.517 77.938-0.645 91.212-2.958zM471.381 570.577c-29.886-5.499-52.338-17.863-73.425-40.391-12.655-12.981-22.291-28.965-27.736-46.779l-0.215-0.818c-3.3-10.961-3.982-16.725-4.020-34.513-0.038-24.879 3.603-39.822 14.298-58.975 6.865-12.25 24.879-32.275 37.167-41.301 41.036-30.113 103.272-31.479 146.242-3.186 10.771 7.092 27.534 22.983 35.423 33.602 6.865 9.216 13.577 23.514 17.522 37.319 5.31 18.546 5.044 48.545-0.569 67.053-6.296 20.859-14.601 34.095-32.465 51.807-17.673 17.522-32.806 26.662-54.462 32.806-13.729 3.906-44.904 5.727-57.761 3.375zM519.32 531.589c27.913-7.547 53.438-32.351 61.554-59.695 3.831-13.009 3.565-35.878-0.607-49.304-8.344-26.738-30.644-48.469-59.278-57.723-14.146-4.551-39.367-4.93-53.362-0.759-29.848 8.837-53.438 31.289-61.933 58.975-4.855 15.891-3.868 42.098 2.162 56.017 12.971 29.961 40.543 51.086 71.756 55.031 13.312 1.669 27.61 0.759 39.708-2.541z" />
<glyph unicode="&#xe90c;" glyph-name="files" d="M228.693 764.459c-37.155-10.451-65.758-39.295-75.686-75.829l-0.175-0.758c-2.347-9.003-2.645-42.496-2.645-284.629v-274.432l642.56 0.896 10.837 4.053c13.355 4.992 33.493 18.261 41.984 27.648 9.528 10.793 17.417 23.324 23.098 37.003l0.326 0.885 3.968 10.624 0.469 155.691c0.512 171.947 0.768 167.211-10.24 189.611-6.997 14.165-26.539 34.987-40.789 43.435-6.196 3.637-13.439 7.085-20.984 9.915l-0.989 0.325c-10.923 3.712-12.757 3.755-134.613 4.651l-123.52 0.853-93.824 152.747-105.216-0.128c-86.187-0.085-106.88-0.555-114.56-2.56zM425.301 723.2c1.408-1.664 23.125-36.565 48.299-77.653l45.739-74.667h130.261c127.787 0 130.389-0.085 139.733-3.541 11.989-4.48 22.059-12.16 30.293-22.997 13.056-17.237 12.373-7.723 12.373-173.995v-148.48l-4.48-10.581c-2.605-6.207-5.754-11.561-9.511-16.423l0.124 0.167c-7.028-8.648-16.018-15.433-26.31-19.719l-0.442-0.163-10.581-4.48h-588.8l-0.427 243.2c-0.299 142.251 0.213 247.979 1.109 254.677 4.011 29.227 25.728 51.84 53.675 55.936 4.821 0.683 46.507 1.365 92.587 1.493 77.824 0.213 83.968 0 86.357-2.773z" />
<glyph unicode="&#xe90d;" glyph-name="filter" d="M603.307 722.091c-10.795-3.413-19.797-8.619-28.885-16.64-9.344-8.235-20.651-24.533-22.315-32.256l-1.109-5.035h-150.997c-163.968 0-158.037 0.341-162.432-9.344-1.299-3.745-2.049-8.061-2.049-12.553 0-0.117 0.001-0.234 0.002-0.351v0.018c0-6.912 0.896-9.429 4.992-13.995l4.949-5.589 305.152-0.939 2.261-6.357c3.456-9.771 13.269-23.595 21.931-31.019 13.593-11.583 31.361-18.63 50.775-18.63 31.186 0 58.125 18.184 70.792 44.527l0.204 0.471 4.864 10.24 77.099 1.707 4.949 5.589c4.096 4.565 4.992 7.083 4.992 14.165 0 10.283-3.243 17.237-9.344 20.011-3.029 1.408-16.341 2.048-41.131 2.048-33.408 0-36.779 0.256-37.675 2.987-6.735 17.542-18.245 31.994-32.94 42.173l-0.298 0.195c-11.648 7.339-25.685 10.965-41.984 10.837-0.263 0.003-0.574 0.004-0.885 0.004-7.412 0-14.631-0.825-21.571-2.389l0.653 0.124zM639.232 679.979c6.272-1.963 16.896-12.459 19.456-19.2 2.944-7.808 2.176-22.741-1.536-30.037-15.744-30.805-63.445-21.76-66.261 12.587-1.621 19.285 8.917 33.963 27.776 38.613 5.376 1.323 11.861 0.683 20.565-1.963zM381.013 523.904c-23.921-5.783-43.263-21.78-53.468-43l-0.207-0.477-5.589-11.947h-76.245l-4.992-4.992c-4.437-4.437-4.992-6.144-4.992-15.488s0.555-11.051 4.992-15.488l4.992-4.992h76.245l5.589-11.947c10.965-23.509 33.408-40.363 59.435-44.544 33.579-5.419 66.688 12.373 81.877 43.904l6.059 12.587h303.787l4.992 4.992c4.437 4.437 4.992 6.144 4.992 15.488s-0.555 11.051-4.992 15.488l-4.992 4.992h-303.787l-6.016 12.459c-10.292 21.612-29.604 37.506-52.934 42.947l-0.528 0.104c-5.085 1.406-10.923 2.214-16.95 2.214-6.143 0-12.090-0.839-17.732-2.409l0.464 0.11zM410.923 481.195c13.13-5.616 22.218-18.312 22.485-33.161v-0.034c0-19.115-16.512-35.84-35.371-35.84-10.155 0-23.211 7.424-29.312 16.597-4.48 6.827-5.205 9.429-5.205 19.243s0.725 12.416 5.205 19.243c9.301 13.995 27.563 20.053 42.197 13.952zM605.867 324.523c-23.637-6.443-45.269-25.856-52.992-47.573l-2.261-6.357-305.152-0.939-4.949-5.589c-4.096-4.565-4.992-7.083-4.992-13.995 0-4.608 0.939-10.411 2.048-12.885 4.395-9.685-1.536-9.344 162.432-9.344h150.997l1.109-5.035c1.664-7.68 12.928-23.979 22.315-32.341 4.608-4.096 13.397-9.856 19.499-12.715 9.472-4.523 13.525-5.376 27.776-5.931 13.739-0.597 18.731-0.043 28.245 3.029 20.267 6.485 41.557 26.283 48.341 44.928l2.603 7.211 38.272 0.853c21.035 0.469 39.595 1.536 41.259 2.347 4.779 2.304 8.064 10.325 8.064 19.712 0 7.083-0.896 9.6-4.992 14.165l-4.949 5.589-76.928 1.707-6.059 12.117c-7.432 14.025-18.2 25.408-31.282 33.366l-0.377 0.213c-15.445 9.003-40.448 12.245-58.027 7.467zM639.616 281.515c13.355-5.589 20.864-17.195 20.864-32.341 0-11.691-2.901-18.731-10.752-26.24-13.525-12.843-37.291-11.989-50.176 1.792-8.533 9.088-11.563 26.24-6.741 37.76 4.275 8.28 10.791 14.891 18.748 19.168l0.239 0.117c7.040 3.072 20.139 2.944 27.819-0.256z" />
<glyph unicode="&#xe90e;" glyph-name="home" d="M481.28 849.92c-15.36-3.072-33.024-10.027-45.611-17.92-16.64-10.411-276.736-213.419-286.677-223.744-16.54-17.243-29.165-38.373-36.361-61.877l-0.29-1.099-3.925-12.8-0.512-178.347c-0.555-197.973-0.853-192.171 10.667-219.008 9.259-21.547 16.171-31.744 32.469-48.085 16.341-16.299 26.581-23.211 48.085-32.469 27.221-11.648 10.453-11.051 312.875-11.051s285.653-0.597 312.875 11.051c21.504 9.259 31.744 16.171 48.085 32.469 16.299 16.341 23.211 26.539 32.469 48.085 11.52 26.837 11.221 21.035 10.667 219.008l-0.512 178.347-3.925 12.8c-7.486 24.603-20.111 45.733-36.702 63.030l0.051-0.054c-9.941 10.325-270.037 213.333-286.677 223.744-13.535 8.292-29.31 14.574-46.139 17.937l-0.923 0.154c-15.275 2.944-45.013 2.859-59.989-0.171zM536.704 807.765c10.88-2.432 24.875-8.619 34.859-15.488 23.936-16.427 268.672-208.725 276.267-217.045 9.813-10.709 20.779-31.744 24.533-47.019 1.877-7.552 2.304-42.539 2.304-180.907 0-192.128 0.725-180.309-12.501-205.653-12.544-24.149-39.253-45.397-66.859-53.205-10.539-2.944-24.405-3.115-283.307-3.115s-272.768 0.171-283.307 3.115c-36.876 10.915-65.331 39.369-76.044 75.455l-0.201 0.791c-2.944 10.411-3.115 21.376-3.115 182.613 0 138.368 0.427 173.355 2.304 180.907 3.755 15.275 14.72 36.309 24.533 47.019 7.595 8.32 252.331 200.619 276.267 217.045 16.828 11.444 37.597 18.271 59.96 18.271 8.621 0 17.004-1.014 25.038-2.931l-0.731 0.147zM368.512 250.155c-4.437-4.437-4.992-6.144-4.992-15.488s0.555-11.051 4.992-15.488l4.992-4.992h276.992l4.992 4.992c4.437 4.437 4.992 6.144 4.992 15.488s-0.555 11.051-4.992 15.488l-4.992 4.992h-276.992l-4.992-4.992z" />
<glyph unicode="&#xe90f;" glyph-name="interface" d="M351.019 807.040c-33.215-6.893-61.891-23.088-84.025-45.709l-0.029-0.029c-29.946-29.049-48.53-69.663-48.53-114.618 0-0.85 0.007-1.698 0.020-2.545l-0.002 0.128c0-0.147-0.001-0.32-0.001-0.494 0-80.076 56.854-146.874 132.398-162.227l1.064-0.181c18.304-3.669 48.043-3.371 67.072 0.683 64.658 14.547 114.475 65.107 127.727 129.051l0.187 1.082c3.413 16.981 3.371 47.403-0.043 63.957-6.607 33.668-22.888 62.777-45.792 85.131l-0.032 0.031c-22.386 22.936-51.495 39.217-84.139 45.656l-1.024 0.168c-16.171 3.371-49.024 3.285-64.853-0.085zM671.573 780.544c-6.869-3.797-9.301-8.747-9.344-19.072-0.043-8.661 0.597-10.581 4.779-14.805 3.421-3.382 8.049-5.549 13.18-5.801l0.047-0.002c33.024-3.925 43.179-8.021 60.416-24.235 28.587-26.965 35.627-68.011 17.536-102.101-6.784-12.715-25.173-30.336-38.187-36.48-11.058-5.262-23.986-8.494-37.628-8.872l-0.132-0.003c-13.525 0-19.968-6.656-20.011-20.693-0.085-17.792 9.216-23.339 34.389-20.395 32.939 3.84 57.003 16 79.616 40.192 59.307 63.403 38.656 166.272-40.661 202.923-20.864 9.6-54.528 14.507-64 9.344zM410.88 765.227c41.856-8.064 79.701-43.776 92.8-87.68 0.853-2.816 2.261-11.477 3.157-19.2 2.987-26.197-2.987-55.381-15.787-77.184-7.168-12.203-31.915-36.864-44.203-44.117-29.995-17.621-70.656-21.376-104.149-9.685-39.253 13.696-71.467 50.304-80 90.88-1.263 7.823-1.984 16.84-1.984 26.027s0.721 18.204 2.111 27l-0.127-0.973c5.8 24.937 18.307 46.374 35.505 62.983l0.037 0.035c30.72 29.312 69.248 40.235 112.64 31.915zM710.059 421.035c-4.693-4.651-5.205-6.272-5.205-15.701 0-9.259 0.597-11.093 4.821-15.317 4.309-4.309 6.4-4.949 20.053-5.973 43.563-3.413 72.491-16.128 100.651-44.331 28.203-28.16 40.917-57.088 44.331-100.651 1.024-13.653 1.664-15.744 5.973-20.053 4.224-4.224 6.059-4.821 15.317-4.821 9.429 0 11.051 0.512 15.701 5.205l5.248 5.205-0.939 20.821c-0.873 26.377-7.491 51.015-18.632 72.969l0.456-0.99c-9.58 20.377-22.039 37.775-37.091 52.537l-0.029 0.028c-31.979 32.394-75.684 53.147-124.222 55.366l-0.408 0.015-20.821 0.939-5.205-5.248zM260.267 379.733c-60.838-12.87-110.207-53.153-135.314-107.021l-0.494-1.182c-9.649-20.126-15.634-43.655-16.462-68.491l-0.008-0.288-0.939-20.821 5.248-5.205c4.651-4.693 6.272-5.205 15.701-5.205 9.216 0 11.093 0.597 15.275 4.736 4.224 4.267 4.864 6.443 5.973 20.053 1.621 20.651 4.693 34.901 11.008 51.285 13.909 36.053 46.805 68.949 82.901 82.859 28.416 10.965 27.264 10.88 140.843 10.88s112.469 0.085 140.843-10.88c18.56-7.211 33.237-17.067 49.536-33.408 28.203-28.16 40.917-57.088 44.331-100.651 1.024-13.653 1.664-15.744 5.973-20.053 4.224-4.224 6.059-4.821 15.317-4.821 9.429 0 11.051 0.512 15.701 5.205l5.248 5.205-0.939 20.821c-1.85 37.67-14.405 72.078-34.658 100.643l0.397-0.59c-24.448 34.944-65.109 63.019-108.288 74.88l-16.555 4.523-112.64 0.384c-105.259 0.341-113.664 0.171-128-2.859z" />
<glyph unicode="&#xe910;" glyph-name="plus" horiz-adv-x="983" d="M450.56 611.021v-122.88h-245.76v-81.92h245.76v-245.76h81.92v245.76h245.76v81.92h-245.76v245.76h-81.92v-122.88z" />
<glyph unicode="&#xe911;" glyph-name="remove" horiz-adv-x="983" d="M466.125 794.481c-108.585-7.66-206.316-65.946-267.837-159.744-12.206-18.637-28.303-52.347-36.086-75.776-11.436-33.034-18.041-71.105-18.041-110.719 0-55.537 12.981-108.043 36.074-154.648l-0.912 2.035c18.104-37.069 37.356-63.734 67.994-94.208 60.416-60.047 135.905-94.085 221.676-99.901 126.034-8.561 244.777 51.528 315.761 159.744 20.193 30.802 38.912 76.882 46.735 115.098 20.767 101.171-2.212 201.318-65.249 284.59-13.722 18.104-46.203 50.176-65.372 64.471-57.64 43.677-130.556 69.965-209.612 69.965-8.843 0-17.609-0.329-26.287-0.975l1.158 0.069zM533.299 752.783c70.055-9.953 131.193-42.299 177.259-89.439l0.057-0.058c100.147-101.745 117.146-256.532 41.574-378.225-43.319-67.743-110.365-117.057-189.178-136.482l-2.146-0.447c-41.984-9.748-96.707-9.748-138.691 0-79.176 18.473-151.142 70.533-192.963 139.633-60.948 100.598-60.375 223.314 1.393 322.806 47.891 75.614 125.829 128.508 216.622 142.006l1.695 0.207c19.374 2.867 64.512 2.867 84.378 0zM338.002 486.502c-5.652-2.294-9.298-9.38-9.298-18.022 0-8.97 3.686-15.77 9.871-18.104 2.621-1.024 60.498-1.434 155.402-1.188 146.186 0.451 151.306 0.573 154.665 3.564 7.741 7.045 7.741 24.412 0 31.457-3.359 3.031-8.397 3.113-155.238 3.441-85.852 0.164-153.354-0.328-155.402-1.147z" />
<glyph unicode="&#xe912;" glyph-name="scroll" horiz-adv-x="983" d="M494.715 813.896c-1.434-1.188-21.873-21.791-45.466-45.752-38.83-39.444-42.926-44.114-42.926-49.070 0-10.813 10.854-21.217 22.159-21.217 5.612 0 7.864 1.761 30.147 23.757 13.271 13.066 24.617 23.757 25.231 23.757s1.106-62.3 1.106-138.445v-138.445h-279.306l23.265 23.347c12.78 12.82 24.003 25.477 24.986 28.099 4.055 10.854-7.373 25.559-19.866 25.559-6.554 0-7.619-0.901-51.159-43.786-48.21-47.432-49.644-49.398-45.179-60.785 3.4-8.643 85.688-89.539 92.406-90.808 8.52-1.597 18.145 4.178 23.265 14.049 4.628 8.847 1.966 13.23-23.716 39.199l-23.921 24.166h279.224v-138.445c0-76.145-0.492-138.445-1.106-138.445s-11.96 10.691-25.231 23.757c-23.388 23.060-24.289 23.757-31.048 23.757-6.021 0-7.905-0.942-14.090-7.168-8.684-8.643-9.503-15.237-2.99-24.044 2.253-3.113 21.914-23.511 43.663-45.384 42.312-42.516 45.466-44.81 55.951-40.878 7.086 2.662 90.563 87.368 92.078 93.389 2.621 10.445-9.216 24.084-20.89 24.084-6.595 0-7.66-0.819-31.908-24.904l-25.108-24.945v279.224h279.224l-24.003-24.166c-29.327-29.614-31.048-33.956-18.432-46.612 6.676-6.676 12.616-8.438 19.128-5.652 2.417 1.024 23.962 21.258 47.882 44.933 46.449 46.080 48.005 48.169 43.254 58.655-1.188 2.662-21.791 24.166-45.752 47.8-43.336 42.721-43.663 43.008-50.627 43.008-6.062 0-7.905-0.942-14.131-7.168-5.939-5.939-7.168-8.192-7.168-13.394 0-5.857 1.556-7.782 24.904-31.334l24.945-25.108h-279.224v138.445c0 76.145 0.532 138.445 1.147 138.445 0.655 0 11.96-10.691 25.108-23.757 23.388-23.183 24.125-23.757 31.007-23.757 5.939 0 7.987 0.942 13.271 6.267 7.496 7.496 9.421 13.599 6.267 20.029-1.229 2.54-21.422 24.003-44.851 47.636l-42.598 43.008-8.192 0.655c-5.284 0.41-9.093-0.164-10.732-1.556z" />
<glyph unicode="&#xe913;" glyph-name="suevry-list" d="M352.085 809.301c-2.091-1.152-29.141-24.917-60.117-52.821-31.019-27.947-57.045-50.773-57.813-50.773s-11.349 8.917-23.509 19.84c-25.557 22.997-30.805 27.136-36.309 28.459-8.192 1.963-19.243-5.333-23.595-15.573-4.565-10.709-1.749-14.549 34.987-47.787 18.475-16.683 35.499-31.616 37.803-33.237 3.279-1.817 7.187-2.89 11.346-2.901h0.003c6.059 0 8.448 1.195 16.213 8.107 53.547 47.531 128.043 115.456 129.451 118.059 4.181 7.851 0.683 18.603-8.576 26.368-3.062 2.716-7.116 4.375-11.557 4.375-3.052 0-5.92-0.783-8.416-2.16l0.090 0.046zM463.061 732.245c-3.088-1.404-5.629-3.547-7.47-6.212l-0.039-0.060c-2.688-5.035-2.688-20.139 0.043-25.173 4.779-9.003-1.536-8.747 208.427-8.747 212.608 0 203.307-0.427 207.829 9.557 1.189 3.424 1.876 7.371 1.876 11.478 0 4.681-0.892 9.154-2.516 13.257l0.085-0.244c-1.843 3.041-4.573 5.385-7.827 6.702l-0.109 0.039c-3.84 1.323-61.867 1.877-200.149 1.792-161.664-0.043-195.669-0.427-200.149-2.389zM225.28 542.592c-35.654-8.417-63.371-35.509-72.55-70.145l-0.154-0.682c-3.925-15.36-2.603-43.008 2.773-57.045 14.245-37.455 49.848-63.587 91.556-63.587 15.744 0 30.619 3.724 43.791 10.339l-0.563-0.256c14.123 6.912 34.603 27.136 42.24 41.728 6.698 13.128 10.623 28.634 10.623 45.056s-3.925 31.928-10.887 45.63l0.265-0.574c-7.637 14.592-28.117 34.816-42.24 41.728-12.737 6.372-27.75 10.102-43.634 10.102-7.519 0-14.842-0.836-21.882-2.419l0.663 0.125zM268.16 497.963c11.349-5.035 21.077-14.549 27.051-26.496 4.395-8.832 5.163-12.288 5.163-23.467 0-11.221-0.768-14.635-5.248-23.552-16.512-33.152-58.667-41.216-85.205-16.384-10.788 9.978-17.519 24.207-17.519 40.008 0 22.647 13.828 42.064 33.501 50.269l0.36 0.133c12.416 5.248 29.397 5.035 41.899-0.512zM460.203 464.981c-5.931-4.693-8.619-14.891-6.272-23.723 1.024-3.712 3.84-8.32 6.272-10.24 4.437-3.499 5.333-3.499 204.032-3.499h199.595l4.992 4.992c4.437 4.437 4.992 6.144 4.992 15.488s-0.555 11.051-4.992 15.488l-4.992 4.992h-199.595c-198.699 0-199.595 0-204.032-3.499zM222.251 276.565c-31.744-7.68-61.227-36.864-69.376-68.608-3.413-13.312-3.456-37.888-0.085-50.859 4.096-15.659 12.459-29.696 25.557-42.752 13.056-13.099 27.093-21.461 42.752-25.557 12.971-3.371 37.547-3.328 50.859 0.085 33.408 8.576 62.976 39.936 69.504 73.728 2.987 15.573 1.237 39.595-3.925 53.547-11.5 29.574-35.981 51.866-66.251 60.127l-0.693 0.161c-12.117 3.115-35.797 3.157-48.341 0.128zM266.837 232.917c12.544-4.693 25.429-17.664 30.251-30.464 4.693-12.459 4.053-33.28-1.408-43.819-13.312-25.813-45.483-37.547-70.955-25.899-19.233 8.603-32.393 27.57-32.393 49.611 0 14.989 6.086 28.557 15.922 38.367l0.001 0.001c11.989 11.904 20.224 15.275 37.845 15.531 7.68 0.085 14.549-1.024 20.736-3.328zM463.061 201.472c-3.088-1.404-5.629-3.547-7.47-6.212l-0.039-0.060c-2.688-5.035-2.688-20.139 0.043-25.173 4.779-9.003-1.536-8.747 208-8.747 137.856 0 195.925 0.555 199.765 1.877 3.363 1.357 6.093 3.701 7.895 6.669l0.041 0.072c1.538 3.859 2.43 8.332 2.43 13.013 0 4.107-0.687 8.053-1.952 11.731l0.076-0.253c-4.523 9.984 4.821 9.557-208.213 9.472-162.048-0.043-196.096-0.427-200.576-2.389z" />
<glyph unicode="&#xe914;" glyph-name="user-checked" d="M427.776 807.211c-77.269-14.592-137.216-74.112-150.443-149.333-18.091-102.741 60.245-200.448 168.107-209.664 94.592-8.064 177.579 48.427 201.387 137.173 4.693 17.579 6.357 49.835 3.499 69.163-10.411 71.168-65.109 130.517-137.856 149.547-21.291 5.589-63.36 7.125-84.693 3.115zM493.227 765.184c30.594-5.734 57.019-20.656 76.995-41.749l0.061-0.065c15.061-15.488 24.192-28.971 30.293-44.8 6.571-17.067 8.875-30.677 8.832-51.883-0.085-41.643-18.56-78.037-53.845-106.112-44.245-35.115-108.075-41.216-160.085-15.275-16.128 8.064-27.264 16.725-42.709 33.109-47.36 50.347-47.403 129.835-0.128 180.736 20.693 22.272 42.411 35.925 68.395 43.093 12.813 3.541 27.526 5.576 42.714 5.576 10.419 0 20.615-0.958 30.503-2.79l-1.026 0.158zM886.187 516.48c-6.568-5.806-12.545-11.432-18.344-17.235l-0.002-0.002c-1.877-2.133-12.416-12.288-23.467-22.613l-20.011-18.731-20.352 18.987c-12.075 11.349-22.485 19.669-25.728 20.608-14.592 4.181-30.805-13.995-24.96-28.032 1.28-3.072 15.275-17.749 32.171-33.749 32.683-30.976 36.181-33.024 46.464-27.52 7.424 3.968 92.587 85.205 95.787 91.349 6.912 13.355-4.395 30.336-20.224 30.379-5.632 0-8.277-1.664-21.333-13.44zM274.773 325.973c-74.112-12.672-131.115-58.24-156.16-124.757-8.107-21.461-11.093-41.771-11.093-74.88v-30.165l4.992-4.992c4.437-4.437 6.144-4.992 15.488-4.992 9.216 0 11.093 0.597 15.232 4.736 4.693 4.693 4.693 4.779 5.675 34.56 1.237 37.077 3.968 49.92 15.829 74.197 19.755 40.576 51.712 66.517 100.011 81.408l12.587 3.84 178.347 0.555c120.96 0.341 182.187-0.085 190.293-1.323 65.707-10.069 118.656-60.629 129.664-123.819 1.451-8.32 2.603-24.96 2.603-37.803 0-23.723 0.981-28.075 7.467-33.323 5.376-4.395 21.419-4.096 27.264 0.469 7.040 5.547 8.491 14.464 7.253 44.075-1.621 38.997-6.528 59.264-21.163 87.979-19.485 37.471-49.718 67.071-86.591 85.255l-1.132 0.505c-16.147 8.258-34.89 14.446-54.653 17.567l-1.070 0.139c-18.432 3.157-27.947 3.328-193.707 3.157-133.504-0.128-177.323-0.683-187.136-2.389z" />
<glyph unicode="&#xe915;" glyph-name="dropdown" d="M246.187 594.773c-6.443-3.925-12.373-12.757-12.373-18.432 0-2.176 1.109-6.016 2.432-8.533 4.352-8.192 265.899-267.989 271.061-269.227 2.603-0.64 6.827-0.64 9.387 0 6.571 1.579 271.147 266.155 272.725 272.725 1.664 6.955-0.469 13.099-6.741 19.371s-12.416 8.405-19.371 6.741c-3.2-0.768-44.459-40.875-128-124.331l-123.307-123.221-122.453 122.283c-67.371 67.243-124.117 123.136-126.165 124.16-5.504 2.773-10.965 2.304-17.195-1.536z" />
<glyph unicode="&#xe916;" glyph-name="checked" horiz-adv-x="1084" d="M131.915 954.458c-29.113-8.016-53.586-24.695-71.158-47.054l-0.221-0.291c-10.873-13.103-19.339-28.642-24.456-45.632l-0.241-0.93-4.216-13.493v-398.456c0-376.169 0.181-399.119 3.192-410.202 7.65-27.829 25.359-54.513 48.489-72.945 15.42-12.288 30.66-19.878 49.333-24.636 14.095-3.554 19.878-3.614 409.48-3.614s395.384 0.060 409.48 3.614c46.321 11.746 84.872 50.176 97.822 97.581 3.012 11.083 3.192 34.033 3.192 409.299s-0.181 398.216-3.192 409.299c-8.663 29.59-25.641 54.485-48.215 72.731l-0.274 0.214c-13.792 11.338-30.343 19.869-48.467 24.451l-0.866 0.185c-14.095 3.554-19.697 3.614-410.202 3.494-386.409-0.060-396.228-0.181-409.48-3.614zM751.074 584.794c7.77-3.674 18.191-15.661 19.697-22.709 3.253-14.818 8.734-8.674-135.288-152.937-74.933-75.053-136.975-135.831-140.71-137.758-16.384-8.493-18.673-6.867-89.69 63.91-34.093 33.973-64.090 65.295-66.62 69.572-5.843 9.879-5 19.576 2.65 29.033 11.083 13.794 24.576 18.312 36.201 12.107 2.711-1.446 27.226-24.998 54.573-52.405 27.287-27.407 50.477-49.815 51.501-49.815s55.055 53.368 120.169 118.543c65.114 65.175 120.832 120.109 123.784 121.976 3.527 2.081 7.771 3.31 12.302 3.31 4.181 0 8.118-1.047 11.562-2.892l-0.131 0.064z" />
<glyph unicode="&#xe917;" glyph-name="check" horiz-adv-x="1084" d="M131.915 954.458c-29.113-8.016-53.586-24.695-71.158-47.054l-0.221-0.291c-10.873-13.103-19.339-28.642-24.456-45.632l-0.241-0.93-4.216-13.493v-398.456c0-376.169 0.181-399.119 3.192-410.202 7.65-27.829 25.359-54.513 48.489-72.945 15.42-12.288 30.66-19.878 49.333-24.636 14.095-3.554 19.878-3.614 409.48-3.614s395.384 0.060 409.48 3.614c46.321 11.746 84.872 50.176 97.822 97.581 3.012 11.083 3.192 34.033 3.192 409.299s-0.181 398.216-3.192 409.299c-8.663 29.59-25.641 54.485-48.215 72.731l-0.274 0.214c-13.792 11.338-30.343 19.869-48.467 24.451l-0.866 0.185c-14.095 3.554-19.697 3.614-410.202 3.494-386.409-0.060-396.228-0.181-409.48-3.614zM929.431 898.62c28.311-4.638 51.802-25.058 61.5-53.489 2.711-7.891 2.952-42.707 2.952-397.432s-0.241-389.542-2.952-397.432c-4.698-13.794-10.842-23.371-21.444-33.431-11.445-10.782-25.058-17.589-40.056-20.058-14.216-2.349-760.41-2.349-774.626 0-29.098 5.251-52.351 25.838-61.34 52.931l-0.16 0.558c-2.711 7.891-2.952 42.707-2.952 397.432s0.241 389.542 2.952 397.432c9.397 27.588 33.31 48.911 59.874 53.368 12.529 2.108 763.422 2.229 776.252 0.12z" />
<glyph unicode="&#xe918;" glyph-name="save" d="M512 311.467v0c-4.267 0-12.8 4.267-17.067 4.267l-145.067 145.067c-8.533 8.533-8.533 21.333 0 29.867s21.333 8.533 29.867 0l128-128 273.067 273.067c8.533 8.533 21.333 8.533 29.867 0s8.533-21.333 0-29.867l-281.6-285.867c-4.267-4.267-12.8-8.533-17.067-8.533zM512 85.333c-200.533 0-362.667 162.133-362.667 362.667s162.133 362.667 362.667 362.667c55.467 0 110.933-12.8 162.133-38.4 8.533-4.267 12.8-17.067 8.533-29.867-4.267-8.533-17.067-12.8-29.867-8.533-46.933 21.333-93.867 34.133-145.067 34.133-174.933 0-320-145.067-320-320s145.067-320 320-320 320 145.067 320 320c0 12.8 8.533 21.333 21.333 21.333s21.333-8.533 21.333-21.333c4.267-200.533-157.867-362.667-358.4-362.667z" />
<glyph unicode="&#xe919;" glyph-name="upload" d="M497.152 818.432c-4.813-2.475-8.832-5.854-11.971-9.943l-0.061-0.083c-2.731-3.712-41.984-45.099-87.253-91.947-45.269-46.805-83.797-87.424-85.632-90.197-5.291-8.064-4.523-20.779 1.792-29.483 10.368-14.379 25.344-20.309 37.461-14.848 4.523 2.048 25.771 22.827 67.755 66.261l61.184 63.275 0.853-192.171c0.853-192.085 0.853-192.213 4.437-197.035 6.101-8.192 12.971-11.093 26.283-11.093s20.181 2.901 26.283 11.093c3.584 4.821 3.584 4.949 4.437 197.035l0.853 192.171 61.184-63.275c41.984-43.435 63.232-64.213 67.755-66.261 12.117-5.461 27.093 0.469 37.461 14.848 6.315 8.661 7.083 21.419 1.835 29.397-1.792 2.731-40.363 43.349-85.675 90.24-45.312 46.933-84.565 88.32-87.253 92.032-6.267 8.073-15.972 13.221-26.879 13.227h-0.001c-4.224 0-10.88-1.451-14.848-3.243zM159.616 422.187c-4.177-1.075-7.821-2.932-10.938-5.421l0.058 0.045c-8.875-8.192-8.789-6.699-8.789-122.88 0-70.272 0.64-111.659 1.835-118.272 8.235-44.928 45.568-85.077 89.643-96.341 12.843-3.285 20.011-3.371 280.576-3.371 258.688 0 267.819 0.128 280.277 3.285 21.419 5.504 36.48 14.208 53.888 31.147 19.029 18.517 32.043 42.411 36.139 66.261 1.28 7.595 1.749 44.757 1.408 117.205-0.512 104.107-0.597 106.197-4.011 110.848-7.381 9.813-11.776 11.733-27.221 11.733s-19.84-1.92-27.221-11.776c-3.456-4.608-3.499-6.357-3.541-109.099-0.085-77.141-0.64-106.24-2.176-111.488-4.779-16.213-17.877-32.469-32.128-39.765-4.927-2.302-10.654-4.125-16.645-5.186l-0.422-0.062c-13.397-2.176-503.168-2.219-516.565-0.043-26.027 4.267-46.165 25.387-50.603 52.992-1.067 6.741-1.792 50.133-1.792 110.549 0 106.752 0.043 106.112-8.747 114.219-3.968 3.627-15.957 7.381-22.827 7.125-3.875-0.393-7.346-0.994-10.731-1.816l0.534 0.11z" />
<glyph unicode="&#xe91a;" glyph-name="success" d="M512-64c-60.509 0-121.018 9.309-176.873 32.582-102.4 37.236-190.836 107.055-251.345 200.145s-88.436 204.8-79.127 311.855c9.309 111.709 51.2 214.109 121.018 297.891s167.564 144.291 274.618 167.564c107.055 23.273 218.764 13.964 321.164-32.582 23.273-9.309 32.582-37.236 23.273-60.509s-37.236-32.582-60.509-23.273c-83.782 37.236-176.873 46.545-265.309 27.927s-167.564-69.818-223.418-139.636c-60.509-69.818-93.091-153.6-97.745-246.691-4.655-88.436 18.618-181.527 65.164-256s121.018-134.982 204.8-162.909c83.782-32.582 176.873-32.582 265.309-9.309 83.782 23.273 162.909 79.127 218.764 148.945s83.782 162.909 83.782 251.345v41.891c0 27.927 18.618 46.545 46.545 46.545s46.545-18.618 46.545-46.545v-37.236c0-111.709-37.236-218.764-102.4-307.2s-158.255-153.6-265.309-186.182c-51.2-9.309-97.745-18.618-148.945-18.618zM512 308.364c-13.964 0-23.273 4.655-32.582 13.964l-139.636 139.636c-18.618 18.618-18.618 46.545 0 65.164s46.545 18.618 65.164 0l107.055-107.055 432.873 432.873c18.618 18.618 46.545 18.618 65.164 0s18.618-46.545 0-65.164l-465.455-465.455c-9.309-9.309-18.618-13.964-32.582-13.964 0 0 0 0 0 0z" />
<glyph unicode="&#xe91b;" glyph-name="error" d="M512-64c-283.927 0-512 228.073-512 512s228.073 512 512 512 512-228.073 512-512-228.073-512-512-512zM512 866.909c-232.727 0-418.909-186.182-418.909-418.909s186.182-418.909 418.909-418.909c232.727 0 418.909 186.182 418.909 418.909s-186.182 418.909-418.909 418.909zM372.364 261.818c-13.964 0-23.273 4.655-32.582 13.964-18.618 18.618-18.618 46.545 0 65.164l279.273 279.273c18.618 18.618 46.545 18.618 65.164 0s18.618-46.545 0-65.164l-279.273-279.273c-9.309-9.309-18.618-13.964-32.582-13.964zM651.636 261.818c-13.964 0-23.273 4.655-32.582 13.964l-279.273 279.273c-18.618 18.618-18.618 46.545 0 65.164s46.545 18.618 65.164 0l279.273-279.273c18.618-18.618 18.618-46.545 0-65.164-9.309-9.309-18.618-13.964-32.582-13.964z" />
<glyph unicode="&#xe91c;" glyph-name="info" d="M507.548-23.93c-271.583 0-489.739 218.157-489.739 489.739s218.157 489.739 489.739 489.739 489.739-218.157 489.739-489.739-218.157-489.739-489.739-489.739zM507.548 866.504c-222.609 0-400.696-178.087-400.696-400.696s178.087-400.696 400.696-400.696c222.609 0 400.696 178.087 400.696 400.696 0 218.157-178.087 400.696-400.696 400.696zM507.548 243.2c-26.713 0-44.522 17.809-44.522 44.522v178.087c0 26.713 17.809 44.522 44.522 44.522s44.522-17.809 44.522-44.522v-178.087c0-26.713-17.809-44.522-44.522-44.522zM512 599.374c-26.713 0-44.522 17.809-44.522 44.522s17.809 44.522 44.522 44.522v0c26.713 0 44.522-17.809 44.522-44.522s-22.261-44.522-44.522-44.522z" />
<glyph unicode="&#xe91d;" glyph-name="left-arrow" d="M435.797 724.011c-2.005-1.152-61.995-56.619-133.248-123.264-15.206-14.546-61.071-57.425-107.007-100.228l-33.836-31.186c-17.664-16.043-17.835-25.131-0.811-41.429 41.771-39.936 271.957-254.251 274.901-255.915 7.68-4.309 14.677-2.688 22.656 5.291 6.357 6.357 7.467 8.448 7.467 14.379 0.006 0.173 0.010 0.377 0.010 0.581 0 4.558-1.756 8.705-4.628 11.803l0.010-0.011c-2.517 2.987-56.789 54.315-120.576 114.048l-116.011 108.587 318.976 0.853c175.744 0.469 320.384 1.536 322.048 2.347 10.581 5.163 10.581 32.811 0 37.973-1.664 0.811-145.92 1.877-321.152 2.347l-318.123 0.853 114.261 106.923c62.848 58.795 116.736 109.696 119.723 113.109 4.224 4.821 5.461 7.765 5.461 13.227 0 5.973-1.067 8.064-7.467 14.421-7.979 7.979-14.976 9.6-22.656 5.291z" />
<glyph unicode="&#xe91e;" glyph-name="next" d="M426.667 256c-4.267 0-12.8 0-17.067 4.267-8.533 8.533-8.533 21.333 0 29.867l153.6 153.6-153.6 157.867c-8.533 8.533-8.533 21.333 0 29.867s21.333 8.533 29.867 0l170.667-170.667c8.533-8.533 8.533-21.333 0-29.867l-170.667-170.667c0-4.267-8.533-4.267-12.8-4.267z" />
<glyph unicode="&#xe91f;" glyph-name="search" horiz-adv-x="1067" d="M503.467 153.6c-183.467 0-332.8 149.333-332.8 332.8s149.333 332.8 332.8 332.8c183.467 0 332.8-149.333 332.8-332.8s-149.333-332.8-332.8-332.8zM503.467 759.467c-149.333 0-268.8-119.467-268.8-268.8s119.467-268.8 268.8-268.8c149.333 0 268.8 119.467 268.8 268.8s-119.467 268.8-268.8 268.8zM883.2 76.8c-8.533 0-17.067 4.267-21.333 8.533l-170.667 170.667c-12.8 12.8-12.8 34.133 0 46.933s34.133 12.8 46.933 0l170.667-170.667c12.8-12.8 12.8-34.133 0-46.933-8.533-8.533-17.067-8.533-25.6-8.533z" />
<glyph unicode="&#xe920;" glyph-name="round" d="M477.013 808.064c-147.712-16.64-270.635-121.301-312.192-265.728-15.488-53.888-18.603-112.811-8.533-162.261 10.709-52.864 41.301-108.843 78.165-143.232 18.261-16.981 37.589-23.339 59.947-19.627 24.832 4.139 18.645-1.28 157.355 137.344l126.677 126.549 0.469-59.093 0.512-59.093 4.053-4.309c8.149-8.661 28.459-7.339 33.408 2.176 1.963 3.755 2.475 20.821 2.816 91.861 0.341 78.933 0.128 87.68-2.432 91.605-1.738 2.517-3.897 4.609-6.396 6.218l-0.089 0.054c-2.603 1.365-28.288 1.835-89.856 1.664-91.733-0.256-93.269-0.384-97.621-8.533-1.123-3.475-1.77-7.472-1.77-11.621 0-0.445 0.007-0.887 0.022-1.328l-0.002 0.064c0-8.405 0.64-10.283 4.992-14.635l4.992-4.992h58.155c32 0 58.155-0.597 58.155-1.323s-55.893-57.131-124.16-125.312c-88.875-88.789-125.611-124.373-129.28-125.355-8.576-2.219-18.944-1.323-24.96 2.219-3.157 1.835-10.965 9.429-17.408 16.853-60.885 70.4-76.501 165.291-43.52 264.491 17.132 51.477 44.847 95.466 80.757 131.232l0.011 0.011c87.211 86.272 211.499 116.224 326.4 78.592 102.4-33.579 183.040-119.125 210.219-223.061 8.32-31.915 9.515-42.112 9.515-81.493s-1.195-49.579-9.515-81.493c-5.717-21.717-8.747-30.037-19.883-54.187-54.827-118.741-182.4-194.133-310.827-183.68-26.15 1.894-50.441 6.49-73.662 13.546l2.366-0.618c-18.048 5.248-22.741 5.419-28.373 0.981-5.803-4.565-10.325-16.299-9.003-23.339 1.408-7.595 7.424-11.819 23.893-16.853 129.024-39.339 266.112-5.333 361.088 89.557 54.523 53.886 91.809 125.105 102.91 204.71l0.215 1.882c3.541 25.685 3.584 73.173 0 98.987-21.675 157.611-142.592 281.259-301.227 308.096-19.157 3.243-76.501 4.693-96.384 2.475z" />
<glyph unicode="&#xe921;" glyph-name="aspect-ratio" d="M114.368 830.848c-12.763-2.889-24.036-7.64-34.178-14.024l0.45 0.264c-17.993-12.337-30.986-30.838-35.981-52.404l-0.115-0.588c-2.688-12.8-2.688-619.392 0-632.192 6.656-31.936 34.048-59.328 66.048-66.048 12.8-2.624 790.016-2.624 802.816 0 23.296 4.864 48.448 24 58.176 44.224 10.304 21.44 9.728 1.152 9.728 337.344 0 217.984-0.512 310.272-1.856 316.672-5.888 28.224-26.24 51.392-55.296 62.976l-10.24 4.096-397.632 0.192c-218.752 0.128-399.616-0.128-401.92-0.512zM896 448v-298.688h-768v597.376h768v-298.688zM213.312 554.688v-106.688h85.376v128h128v85.312h-213.376v-106.624zM725.312 384v-64h-128v-85.312h213.376v213.312h-85.376v-64z" />
<glyph unicode="&#xe922;" glyph-name="zoom-in" d="M376.064 830.272c-65.562-7.037-123.218-36.344-166.235-80.090l-0.037-0.038c-39.455-38.786-67.198-89.373-77.507-146.038l-0.253-1.674c-4.416-23.744-4.416-71.744 0-95.552 10.584-58.333 38.322-108.914 77.723-147.675l0.037-0.037c38.823-39.449 89.421-67.205 146.094-77.569l1.682-0.255c23.232-4.288 73.536-4.352 95.552-0.064 45.122 8.503 84.972 26.659 118.852 52.289l-0.708-0.513 14.656 11.008 5.696-5.504 5.696-5.568v-34.304l213.376-213.312 32 31.936 31.936 32-213.312 213.376h-34.304l-5.568 5.696-5.504 5.696 11.008 14.656c25.117 33.172 43.273 73.022 51.499 116.386l0.277 1.758c4.288 22.016 4.224 72.32-0.064 95.552-10.594 58.342-38.355 108.925-77.785 147.674l-0.039 0.038c-49.714 50.465-118.796 81.731-195.18 81.731-10.423 0-20.71-0.582-30.831-1.716l1.243 0.113zM450.688 740.928c63.104-16.064 111.744-59.136 134.016-118.656 7.777-20.068 12.282-43.292 12.282-67.569 0-84.546-54.646-156.329-130.545-181.954l-1.354-0.397c-17.822-6.041-38.349-9.528-59.691-9.528-99.223 0-180.843 75.366-190.737 171.976l-0.068 0.815c-10.688 101.312 62.912 195.072 164.224 209.28 6.959 0.735 15.033 1.155 23.205 1.155 17.237 0 34.038-1.866 50.213-5.407l-1.546 0.284zM384 618.688v-42.688h-85.312v-42.688h85.312v-85.312h42.688v85.312h85.312v42.688h-85.312v85.312h-42.688v-42.624z" />
<glyph unicode="&#xe923;" glyph-name="calander" d="M320.853 799.573v-32.427l-38.827-0.043c-44.117-0.085-54.101-1.579-72.704-10.752-23.509-11.605-45.909-37.291-54.443-62.379l-3.84-11.307-0.469-298.24-0.427-298.24h315.477c308.608 0 315.776 0.085 328.661 3.371 7.253 1.835 17.707 5.803 23.253 8.747 22.4 11.904 43.264 36.949 51.285 61.483l4.139 12.587v508.587l-3.797 12.117c-7.552 23.979-29.269 50.048-51.627 61.952-18.859 10.069-31.616 12.117-75.392 12.117h-38.997v64.853h-40.96v-64.853h-300.373v64.853h-40.96v-32.427zM320.853 693.76v-32.427h40.96v64.853h300.373v-64.853h40.96v65.152l79.36-1.152 11.093-5.248c19.541-9.301 33.579-27.349 37.504-48.299 0.981-5.077 1.749-24.064 1.749-42.24v-33.067h-641.707v33.067c0 18.176 0.768 37.163 1.749 42.24 4.821 25.6 25.941 47.872 50.048 52.608 3.883 0.768 23.040 1.493 42.496 1.621l35.413 0.171v-32.427zM832.853 373.12c0-116.053-0.64-185.685-1.749-191.573-4.267-21.507-18.258-39.053-37.099-48.123l-0.405-0.176-11.093-5.248-591.36-0.896v428.416h641.707v-182.4zM320.853 426.667v-21.333h40.96v42.667h-40.96v-21.333zM491.52 426.667v-21.333h40.96v42.667h-40.96v-21.333zM662.187 426.667v-21.333h40.96v42.667h-40.96v-21.333zM320.853 256v-21.333h40.96v42.667h-40.96v-21.333zM491.52 256v-21.333h40.96v42.667h-40.96v-21.333zM662.187 256v-21.333h40.96v42.667h-40.96v-21.333z" />
<glyph unicode="&#xe924;" glyph-name="pen-edit" d="M629.931 764.459c-20.992-5.675-16.384-1.365-224.725-209.664-151.424-151.424-199.125-200.149-202.581-206.763-9.515-18.219-9.771-21.077-9.771-117.077 0-64.811 0.555-89.472 2.048-92.757 4.267-9.387 3.925-9.344 99.925-9.344 96.171 0 99.029 0.256 117.205 9.771 6.571 3.456 55.040 50.816 202.069 197.504 106.368 106.112 196.736 197.376 200.832 202.752 10.069 13.312 14.677 26.197 15.744 43.947 1.067 17.536-2.261 32.555-10.155 45.568-6.869 11.392-118.741 123.008-129.323 129.067-16.213 9.259-41.856 12.203-61.269 6.997zM670.080 721.323c8.192-4.267 111.787-108.075 116.053-116.309 4.48-8.661 4.181-26.069-0.597-34.987-2.005-3.755-18.475-21.589-36.608-39.68l-33.024-32.853-154.453 154.496 34.688 34.56c19.072 18.987 34.987 34.517 35.413 34.56 0.427 0 3.84 1.152 7.595 2.56 3.727 1.18 8.014 1.86 12.46 1.86 6.717 0 13.072-1.552 18.725-4.318l-0.252 0.111zM610.133 545.28l76.8-76.8-145.067-145.195c-83.243-83.285-147.968-146.773-151.893-148.907-6.699-3.627-8.448-3.712-81.579-4.224l-74.709-0.469 0.469 74.709c0.469 68.821 0.768 75.221 3.669 80.725 2.688 5.12 292.267 296.96 294.656 296.96 0.469 0 35.413-34.56 77.653-76.8z" />
<glyph unicode="&#xe925;" glyph-name="paste" horiz-adv-x="1117" d="M992.968 29.091h-868.847v744.727h124.121v-139.636h620.608v139.636h124.118zM558.545 866.909c16.458 0 32.247-4.904 43.883-13.633 11.641-8.729 18.176-20.568 18.176-32.913s-6.535-24.184-18.176-32.913c-11.636-8.729-27.425-13.633-43.883-13.633s-32.247 4.904-43.883 13.633c-11.641 8.729-18.176 20.568-18.176 32.913s6.535 24.184 18.176 32.913c11.636 8.729 27.425 13.633 43.883 13.633zM992.968 866.909h-259.412c-26.065 53.993-94.334 93.091-175.011 93.091s-148.945-39.098-175.011-93.091h-259.413c-32.919 0-64.49-9.808-87.767-27.266s-36.354-41.136-36.354-65.825v-744.727c0-24.688 13.077-48.365 36.354-65.825s54.848-27.266 87.767-27.266h868.847c32.922 0 64.493 9.807 87.771 27.266 23.273 17.459 36.352 41.137 36.352 65.825v744.727c0 24.689-13.079 48.367-36.352 65.825-23.277 17.458-54.849 27.266-87.771 27.266z" />
<glyph unicode="&#xe926;" glyph-name="share" horiz-adv-x="1280" d="M659.2-64c-19.2 0-32 6.4-44.8 12.8-38.4 19.2-64 57.6-64 102.4v172.8c-192-12.8-371.2-102.4-492.8-249.6-6.4-12.8-25.6-12.8-38.4-12.8s-19.2 12.8-19.2 25.6v38.4c0 320 236.8 595.2 550.4 640v185.6c0 44.8 25.6 83.2 64 96 38.4 19.2 83.2 12.8 115.2-12.8l512-403.2c25.6-19.2 38.4-51.2 38.4-83.2s-12.8-64-38.4-83.2l-512-403.2c-19.2-19.2-44.8-25.6-70.4-25.6zM582.4 281.6c6.4 0 19.2-6.4 25.6-6.4 6.4-6.4 6.4-12.8 6.4-25.6v-204.8c0-19.2 12.8-32 25.6-44.8 12.8-6.4 32-6.4 51.2 6.4l512 403.2c6.4 12.8 12.8 25.6 12.8 38.4s-6.4 25.6-19.2 32l-512 403.2c-12.8 12.8-32 12.8-44.8 6.4-19.2-6.4-25.6-19.2-25.6-38.4v-211.2c0-19.2-12.8-32-25.6-32-288-25.6-499.2-256-524.8-537.6 140.8 134.4 326.4 211.2 518.4 211.2 0 0 0 0 0 0zM582.4 640v0 0z" />
<glyph unicode="&#xe927;" glyph-name="hourglass" horiz-adv-x="542" d="M271.059 417.882c-6.024 0-12.047 0-18.071 6.024l-192.753 144.565c-36.141 30.118-60.235 72.282-60.235 120.471v240.941c0 18.071 12.047 30.118 30.118 30.118h481.882c18.071 0 30.118-12.047 30.118-30.118v-240.941c0-48.188-24.094-90.353-60.235-120.471l-192.753-144.565c-6.024-6.024-12.047-6.024-18.071-6.024zM60.235 899.765v-210.824c0-30.118 12.047-54.212 36.141-72.282l174.682-132.518 174.682 132.518c24.094 18.071 36.141 42.165 36.141 72.282v210.824h-421.647zM512-64h-481.882c-18.071 0-30.118 12.047-30.118 30.118v240.941c0 48.188 24.094 90.353 60.235 120.471l192.753 144.565c12.047 6.024 24.094 6.024 36.141 0l192.753-144.565c36.141-30.118 60.235-72.282 60.235-120.471v-240.941c0-18.071-12.047-30.118-30.118-30.118zM60.235-3.765h421.647v210.824c0 30.118-12.047 54.212-36.141 72.282l-174.682 132.518-174.682-132.518c-24.094-18.071-36.141-42.165-36.141-72.282v-210.824z" />
<glyph unicode="&#xe928;" glyph-name="comment" d="M678.4 76.8h-166.4c-19.2 0-32 12.8-32 32s12.8 32 32 32h166.4c19.2 0 32-12.8 32-32s-12.8-32-32-32zM812.8 76.8h-140.8c-19.2 0-32 12.8-32 32s12.8 32 32 32h140.8c6.4 0 6.4 0 6.4 6.4 0 0 0 6.4 0 6.4l-44.8 44.8c-12.8 12.8-12.8 32 0 44.8s32 12.8 44.8 0l44.8-44.8c19.2-19.2 25.6-51.2 12.8-76.8-6.4-32-32-44.8-64-44.8zM512 76.8c-204.8 0-371.2 166.4-371.2 371.2s166.4 371.2 371.2 371.2 371.2-166.4 371.2-371.2c0-19.2-12.8-32-32-32s-32 12.8-32 32c0 172.8-140.8 307.2-307.2 307.2-172.8 0-307.2-134.4-307.2-307.2s140.8-307.2 307.2-307.2c19.2 0 32-12.8 32-32s-12.8-32-32-32zM793.6 185.6c-6.4 0-19.2 0-25.6 6.4l-12.8 12.8c-12.8 12.8-12.8 32 0 44.8s32 12.8 44.8 0l12.8-12.8c12.8-12.8 12.8-32 0-44.8 0 0-6.4-6.4-19.2-6.4zM780.8 204.8c-6.4 0-12.8 0-19.2 6.4-12.8 12.8-19.2 32-6.4 44.8 44.8 57.6 64 121.6 64 192 0 19.2 12.8 32 32 32s32-12.8 32-32c0-83.2-25.6-166.4-83.2-230.4 0-6.4-12.8-12.8-19.2-12.8z" />
<glyph unicode="&#xe929;" glyph-name="customers" d="M170.667 119.467c-17.067 0-34.133 12.8-34.133 34.133 0 115.2 102.4 213.333 221.867 213.333h110.933c17.067 0 34.133-12.8 34.133-34.133s-12.8-34.133-34.133-34.133h-106.667c-89.6 0-162.133-68.267-162.133-149.333 4.267-17.067-12.8-29.867-29.867-29.867zM746.667 72.533c-4.267 0-8.533 0-12.8 4.267-12.8 4.267-123.733 59.733-123.733 149.333v85.333c0 12.8 8.533 25.6 21.333 29.867l76.8 25.6c25.6 12.8 55.467 12.8 81.067 0l76.8-29.867c12.8-4.267 21.333-17.067 21.333-29.867v-85.333c0-89.6-110.933-145.067-123.733-149.333-8.533 4.267-12.8 0-17.067 0zM674.133 285.867v-59.733c0-34.133 46.933-68.267 76.8-85.333 29.867 17.067 76.8 46.933 76.8 85.333v59.733l-55.467 21.333c-12.8 4.267-25.6 4.267-34.133 0 0 0 0 0-4.267 0l-59.733-21.333zM716.8 337.067v0 0zM507.733 422.4c-55.467 0-106.667 21.333-149.333 59.733-38.4 38.4-59.733 93.867-59.733 149.333 0 51.2 25.6 98.133 64 136.533 85.333 76.8 213.333 76.8 298.667 0 0 0 0 0 0 0 42.667-42.667 64-93.867 64-149.333s-25.6-102.4-64-140.8c-42.667-38.4-98.133-55.467-153.6-55.467zM512 759.467c-38.4 0-76.8-12.8-106.667-38.4-25.6-21.333-42.667-55.467-42.667-89.6 0-38.4 12.8-76.8 42.667-102.4 55.467-55.467 149.333-55.467 213.333 0 25.6 25.6 42.667 55.467 42.667 93.867s-17.067 72.533-42.667 98.133c-29.867 21.333-68.267 38.4-106.667 38.4z" />
<glyph unicode="&#xe92a;" glyph-name="facebook" horiz-adv-x="439" d="M402.871 538.99h-134.29v-602.99h-151.406v602.99h-85.577v122.441h85.577v51.346c0 83.383 21.943 143.945 65.829 181.687 44.763 38.619 114.542 57.929 209.335 57.929v-125.074c-45.641 0-77.678-8.777-96.11-26.331-18.432-16.677-27.648-46.080-27.648-88.21v-51.346h134.29v-122.441zM402.871 538.99v-48.762h48.762v48.762h-48.762zM268.581 538.99v48.762h-48.762v-48.762h48.762zM268.581-64v-48.762h48.762v48.762h-48.762zM117.175-64h-48.762v-48.762h48.762v48.762zM117.175 538.99h48.762v48.762h-48.762v-48.762zM31.598 538.99h-48.762v-48.762h48.762v48.762zM31.598 661.431v48.762h-48.762v-48.762h48.762zM117.175 661.431v-48.762h48.762v48.762h-48.762zM183.003 894.464l31.795-36.971 0.058 0.050-31.853 36.921zM392.338 952.393h48.762v48.762h-48.762v-48.762zM392.338 827.319v-48.762h48.762v48.762h-48.762zM296.229 800.987l32.715-36.159 0.463 0.418 0.452 0.43-33.629 35.31zM268.581 661.431h-48.762v-48.762h48.762v48.762zM402.871 661.431h48.762v48.762h-48.762v-48.762zM402.871 587.752h-134.29v-97.524h134.29v97.524zM219.819 538.99v-602.99h97.524v602.99h-97.524zM268.581-15.238h-151.406v-97.524h151.406v97.524zM165.937-64v602.99h-97.524v-602.99h97.524zM117.175 587.752h-85.577v-97.524h85.577v97.524zM80.36 538.99v122.441h-97.524v-122.441h97.524zM31.598 612.669h85.577v97.524h-85.577v-97.524zM165.937 661.431v51.346h-97.524v-51.346h97.524zM165.937 712.777c0 75.615 19.822 119.742 48.861 144.717l-63.589 73.941c-58.732-50.509-82.796-127.506-82.796-218.657h97.524zM214.856 857.543c31.922 27.541 87.74 46.088 177.482 46.088v97.524c-99.844 0-183.583-20.073-241.188-69.771l63.705-73.841zM343.576 952.393v-125.074h97.524v125.074h-97.524zM392.338 876.081c-49.141 0-97.327-8.915-129.739-39.783l67.258-70.621c4.452 4.24 20.34 12.88 62.481 12.88v97.524zM263.514 837.146c-33.876-30.65-43.695-77.587-43.695-124.369h97.524c0 37.478 8.613 49.348 11.601 52.051l-65.43 72.318zM219.819 712.777v-51.346h97.524v51.346h-97.524zM268.581 612.669h134.29v97.524h-134.29v-97.524zM354.109 661.431v-122.441h97.524v122.441h-97.524z" />
<glyph unicode="&#xe92b;" glyph-name="linkin" horiz-adv-x="1106" d="M140.902 692.941c-36.864 0-67.174 10.65-90.931 31.949-22.938 22.118-34.406 49.152-34.406 81.101 0 32.768 11.469 59.802 34.406 81.101 23.757 22.118 54.067 33.178 90.931 33.178 36.045 0 65.536-11.059 88.474-33.178 23.757-21.299 35.635-48.333 35.635-81.101 0-31.949-11.878-58.982-35.635-81.101-22.938-21.299-52.429-31.949-88.474-31.949zM245.35 621.67v-685.67h-210.125v685.67h210.125zM815.419 629.043c80.282 0 144.179-26.214 191.693-78.643 48.333-51.61 72.499-122.88 72.499-213.811v-400.589h-208.896v372.326c0 45.875-11.878 81.51-35.635 106.906s-55.706 38.093-95.846 38.093c-40.141 0-72.090-12.698-95.846-38.093s-35.635-61.030-35.635-106.906v-372.326h-210.126v685.67h210.126v-90.931c21.299 30.31 49.971 54.067 86.016 71.27 36.045 18.022 76.595 27.034 121.651 27.034z" />
<glyph unicode="&#xe92c;" glyph-name="instagram" horiz-adv-x="1071" d="M507.345 634.182c-55.855 0-107.055-23.273-144.291-60.509-41.891-37.236-60.509-93.091-60.509-148.945s23.273-107.055 60.509-148.945c41.891-41.891 93.091-60.509 148.945-60.509s107.055 23.273 148.945 60.509c41.891 37.236 60.509 93.091 60.509 148.945s-23.273 107.055-65.164 148.945c-37.236 37.236-93.091 60.509-148.945 60.509zM837.818 960h-605.091c-130.327 0-232.727-102.4-232.727-232.727v-558.545c0-130.327 102.4-232.727 232.727-232.727h605.091c130.327 0 232.727 102.4 232.727 232.727v558.545c0 130.327-102.4 232.727-232.727 232.727zM721.455 210.618c-55.855-55.855-134.982-88.436-214.109-88.436s-158.255 32.582-214.109 88.436-88.436 134.982-88.436 214.109 32.582 158.255 88.436 214.109 134.982 88.436 214.109 88.436 158.255-32.582 214.109-88.436c55.855-55.855 88.436-134.982 88.436-214.109s-27.927-158.255-88.436-214.109zM884.364 750.545c-23.273 0-41.891 18.618-41.891 41.891s18.618 41.891 41.891 41.891c23.273 0 41.891-18.618 41.891-41.891s-18.618-41.891-41.891-41.891z" />
<glyph unicode="&#xe92d;" glyph-name="like" d="M352 76.8c-19.2 0-32 12.8-32 32v403.2c0 19.2 12.8 32 32 32s32-12.8 32-32v-403.2c0-19.2-12.8-32-32-32zM697.6 76.8h-460.8c-51.2 0-96 44.8-96 96v275.2c0 51.2 44.8 96 96 96h96l89.6 230.4c19.2 38.4 57.6 57.6 96 44.8l25.6-12.8c64-25.6 102.4-83.2 102.4-147.2v-115.2h96c44.8 0 83.2-19.2 108.8-51.2s38.4-76.8 25.6-121.6l-51.2-192c-6.4-64-64-102.4-128-102.4zM236.8 480c-19.2 0-32-12.8-32-32v-275.2c0-19.2 12.8-32 32-32h467.2c32 0 64 25.6 70.4 57.6l51.2 192c6.4 25.6 0 44.8-12.8 64s-38.4 25.6-57.6 25.6h-128c-25.6 0-38.4 12.8-38.4 32v147.2c0 38.4-25.6 76.8-64 89.6l-25.6 6.4c-6.4 0-12.8 0-12.8-6.4l-102.4-249.6c-6.4-12.8-19.2-19.2-32-19.2h-115.2z" />
<glyph unicode="&#xe92e;" glyph-name="twitter" horiz-adv-x="1292" d="M1267.573 820.816v0l19.883-14.913c4.971 9.942 4.971 19.883 0 24.854-4.971 9.942-14.913 14.913-19.883 14.913h-173.981c-24.854 34.796-59.65 59.65-99.417 79.534-44.738 19.883-99.417 34.796-164.039 34.796-99.417 0-178.951-29.825-238.602-89.476-49.709-49.709-84.505-114.33-94.447-188.893-134.214 39.767-258.485 149.126-328.078 263.456-4.971 9.942-9.942 14.913-19.883 14.913-4.971 0-14.913-4.971-19.883-9.942v0c-159.068-208.777-154.097-487.146 34.796-690.951-14.913-4.971-34.796-9.942-54.68-14.913-24.854-4.971-44.738-14.913-64.621-19.883-9.942-4.971-14.913-4.971-19.883-4.971s-4.971 0-4.971 0 0 0 0 0 0 0 0 0 0 0 0 0 0 0 0 0 0 0 0 0 0 0 0 0-4.971 0-4.971 0c0 0-4.971 0-4.971 0s0 0 0 0 0 0 0 0 0 0-4.971-4.971c0 0 0-4.971 0-4.971s0-4.971 0-4.971c0 0 0-4.971 0-4.971s0 0 0-4.971c0 0 0 0 0 0s0-4.971 0-4.971c0 0 0-4.971 0-4.971s0 0 0 0c44.738-64.621 94.447-124.272 164.039-169.010s164.039-79.534 293.282-79.534c223.689 0 402.641 74.563 521.942 198.835s183.922 298.252 183.922 502.058l119.301 164.039-19.883 19.883zM1078.68 820.816v0 0 0z" />
<glyph unicode="&#xe92f;" glyph-name="youtube" horiz-adv-x="1414" d="M1170.286 960h-926.476c-136.533 0-243.81-107.276-243.81-243.81v-536.381c0-136.533 107.276-243.81 243.81-243.81h926.476c136.533 0 243.81 107.276 243.81 243.81v536.381c0 136.533-107.276 243.81-243.81 243.81zM902.095 413.867l-297.448-156.038c-4.876 0-9.752-4.876-9.752-4.876-4.876 0-9.752 0-14.629 4.876-9.752 4.876-9.752 14.629-9.752 19.505v312.076c0 9.752 4.876 14.629 9.752 19.505 9.752 4.876 14.629 4.876 24.381 0l297.448-156.038c9.752-4.876 14.629-14.629 14.629-19.505s-9.752-19.505-14.629-19.505z" />
<glyph unicode="&#xe930;" glyph-name="document" d="M255.989 21.322c-23.467 0-43.548 8.349-60.245 25.046-16.725 16.726-25.088 36.822-25.088 60.288v682.667c0 23.467 8.363 43.563 25.088 60.288 16.697 16.697 36.779 25.045 60.245 25.045h341.332l256-256v-512c0-23.466-8.346-43.562-25.043-60.288-16.726-16.698-36.822-25.046-60.288-25.046h-512.001zM554.656 575.99h213.334l-213.334 213.332v-213.332z" />
<glyph unicode="&#xe931;" glyph-name="pdf" d="M384.010 426.656h42.669v85.334h42.666c12.090 0 22.23 4.096 30.422 12.288 8.163 8.163 12.243 18.288 12.243 30.378v42.666c0 12.090-4.080 22.23-12.243 30.422-8.192 8.163-18.333 12.246-30.422 12.246h-85.334v-213.334zM426.678 554.656v42.666h42.666v-42.666h-42.666zM554.678 426.656h85.331c12.090 0 22.23 4.096 30.422 12.288 8.163 8.163 12.246 18.291 12.246 30.378v128c0 12.090-4.083 22.23-12.246 30.422-8.192 8.163-18.333 12.246-30.422 12.246h-85.331v-213.334zM597.344 469.322v128h42.666v-128h-42.666zM725.344 426.656h42.666v85.334h42.669v42.666h-42.669v42.666h42.669v42.669h-85.334v-213.334zM341.344 191.99c-23.467 0-43.549 8.349-60.245 25.043-16.725 16.726-25.088 36.822-25.088 60.288v512.001c0 23.467 8.363 43.563 25.088 60.288 16.697 16.697 36.779 25.045 60.245 25.045h512c23.466 0 43.562-8.348 60.288-25.045 16.698-16.725 25.046-36.821 25.046-60.288v-512.001c0-23.466-8.349-43.562-25.046-60.288-16.726-16.694-36.822-25.043-60.288-25.043h-512zM170.677 21.322c-23.467 0-43.548 8.349-60.245 25.046-16.725 16.726-25.088 36.822-25.088 60.288v597.333h85.333v-597.333h597.332v-85.334h-597.332z" />
<glyph unicode="&#xe932;" glyph-name="right-arrow" d="M851.2 416h-678.4c-19.2 0-32 12.8-32 32s12.8 32 32 32h684.8c19.2 0 32-12.8 32-32s-19.2-32-38.4-32zM582.4 160c-6.4 0-19.2 6.4-25.6 12.8-12.8 12.8-12.8 32 0 44.8l249.6 230.4-249.6 230.4c-12.8 12.8-12.8 32 0 44.8s32 12.8 44.8 0l275.2-256c6.4-6.4 12.8-12.8 12.8-25.6s-6.4-19.2-12.8-25.6l-275.2-256c-6.4 0-12.8 0-19.2 0z" />
<glyph unicode="&#xe933;" glyph-name="file" d="M665.6 79.36h-435.2v609.28c0 66.56 56.32 128 128 128h204.8c35.84 0 66.56-10.24 87.040-35.84l102.4-97.28c25.6-25.6 40.96-56.32 40.96-92.16v-378.88c0-71.68-56.32-133.12-128-133.12zM281.6 130.56h384c40.96 0 76.8 35.84 76.8 76.8v378.88c0 20.48-10.24 40.96-25.6 56.32l-102.4 97.28c-15.36 15.36-35.84 20.48-51.2 20.48h-204.8c-40.96 0-76.8-35.84-76.8-76.8v-552.96zM768 581.12h-209.92v209.92h51.2v-158.72h158.72z" />
<glyph unicode="&#xe934;" glyph-name="upload-2" d="M512 170.6c-11.8 0-21.4 9.6-21.4 21.4v256c0 11.8 9.6 21.4 21.4 21.4s21.4-9.6 21.4-21.4v-256c0-11.8-9.6-21.4-21.4-21.4zM594.8 353.6c-5.4 0-10.6 2-14.8 6l-68 65.2-68-65.2c-8.6-8.2-22-7.8-30.2 0.6-8.2 8.6-7.8 22 0.6 30.2l82.8 79.2c8.2 8 21.2 8 29.6 0l82.8-79.2c8.6-8.2 8.8-21.6 0.6-30.2-4.2-4.4-9.8-6.6-15.4-6.6zM359.4 170.6h-59.6c-106.4 0-193.2 83.4-193.2 186 0 93.4 72 171.2 166.8 183.6 12.2 49.4 40.6 94.2 81 127.6 45.2 37.2 102.8 57.6 162.4 57.6 138 0 250.4-108 250.4-240.8v-15.4c83.2-2.4 150.2-68.4 150.2-149.2 0-82.4-69.6-149.4-155-149.4h-97.8c-11.8 0-21.4 9.6-21.4 21.4s9.6 21.4 21.4 21.4h97.8c62 0 112.2 47.8 112.2 106.6s-50.4 106.6-112.2 106.6h-16.6c-11.8 0-21.4 9.6-21.4 21.4v36.6c0 109.2-93.2 198-207.6 198-102 0-188.2-69.8-204.6-166-1.6-9.8-10-17.2-20-17.6-80-4-142.8-66.4-142.8-142.4 0-79 67.4-143.2 150.4-143.2h59.6c11.8 0 21.4-9.6 21.4-21.4s-9.6-21.4-21.4-21.4z" />
<glyph unicode="&#xe935;" glyph-name="play" d="M118.884 957.527c8.225 4.084 17.542 2.933 24.501-2.416l765.642-489.051c5.406-4.486 8.857-10.985 8.857-18.002 0-6.902-3.508-13.631-8.857-18.060l-765.699-488.994c-4.026-3.278-9.317-5.004-14.379-5.004l-10.123 2.301c-7.822 3.738-12.768 11.906-12.768 20.763v977.815c0 8.742 4.946 16.967 12.826 20.648z" />
<glyph unicode="&#xe936;" glyph-name="pause" d="M128 832h320v-768h-320zM576 832h320v-768h-320z" />
</font>
</defs>
</svg>
