<svg width="24" height="24" viewBox="0 0 24 24" fill="none" xmlns="http://www.w3.org/2000/svg">
	<path d="M4 18.9722C4 16.6331 6 14.7617 8.5 14.7617H11.1" stroke="#292324" stroke-width="1.5" stroke-linecap="round" stroke-linejoin="round"/>
<path fill-rule="evenodd" clip-rule="evenodd" d="M16.8 14.5739C17.2 14.3868 17.7 14.3868 18.2 14.5739L20 15.2289V17.1938C20 18.878 17.5 20.0008 17.5 20.0008C17.5 20.0008 15 18.878 15 17.1938V15.2289L16.8 14.5739Z" stroke="#292324" stroke-width="1.5" stroke-linecap="round" stroke-linejoin="round"/>
<path d="M15 5.12281C16.7 6.71345 16.7 9.23977 15 10.7368C13.3 12.2339 10.6 12.3275 8.99999 10.7368C7.39999 9.1462 7.29999 6.61988 8.99999 5.12281C10.7 3.62573 13.3 3.62573 15 5.12281" stroke="#292324" stroke-width="1.5" stroke-linecap="round" stroke-linejoin="round"/>
</svg>
