<svg width="18" height="18" viewBox="0 0 18 18" fill="none" xmlns="http://www.w3.org/2000/svg">
<path d="M17 7V15C17 16.105 16.105 17 15 17H3C1.895 17 1 16.105 1 15V3C1 1.895 1.895 1 3 1H12" stroke="#323232" stroke-linecap="round" stroke-linejoin="round"/>
<path d="M10 13.5H13" stroke="#1D252D" stroke-linecap="round" stroke-linejoin="round"/>
<path d="M5 13.503L5.66354 14L7 13" stroke="#1D252D" stroke-linecap="round" stroke-linejoin="round"/>
<path d="M10 9.5H13" stroke="#1D252D" stroke-linecap="round" stroke-linejoin="round"/>
<path d="M5 9.503L5.66378 10L7 9" stroke="#1D252D" stroke-linecap="round" stroke-linejoin="round"/>
<path fill-rule="evenodd" clip-rule="evenodd" d="M13.3303 6H12V4.6697C12 4.53334 12.0541 4.40256 12.1506 4.30616L15.3059 1.15085C15.4023 1.05427 15.5331 1 15.6696 1C15.806 1 15.9369 1.05427 16.0333 1.15085L16.8492 1.96673C16.9457 2.06312 17 2.19397 17 2.33041C17 2.46686 16.9457 2.5977 16.8492 2.69409L13.6938 5.84941C13.5974 5.94575 13.4666 5.9999 13.3303 6Z" stroke="#1D252D" stroke-width="0.8" stroke-linecap="round" stroke-linejoin="round"/>
<path d="M14.8135 1.93848L16.0635 3.18848" stroke="#1D252D" stroke-width="0.8" stroke-linecap="round" stroke-linejoin="round"/>
</svg>
