<svg width="765" height="116" viewBox="0 0 965 116" fill="none" xmlns="http://www.w3.org/2000/svg">
<path d="M487.166 40.6663H483.166V44.6663H481.833V40.6663H477.833V39.333H481.833V35.333H483.166V39.333H487.166V40.6663Z" fill="#8E9AA0"/>
<path d="M450.783 63.168C449.975 63.168 449.331 62.98 448.851 62.604C448.379 62.228 448.115 61.72 448.059 61.08H449.163C449.227 61.44 449.395 61.724 449.667 61.932C449.947 62.132 450.315 62.232 450.771 62.232C451.227 62.232 451.587 62.148 451.851 61.98C452.115 61.804 452.247 61.564 452.247 61.26C452.247 60.948 452.135 60.72 451.911 60.576C451.695 60.424 451.291 60.328 450.699 60.288C449.803 60.232 449.171 60.068 448.803 59.796C448.435 59.516 448.251 59.104 448.251 58.56C448.251 57.992 448.467 57.544 448.899 57.216C449.331 56.888 449.923 56.724 450.675 56.724C451.427 56.724 452.015 56.888 452.439 57.216C452.871 57.536 453.131 57.984 453.219 58.56H452.127C451.975 57.952 451.487 57.648 450.663 57.648C450.247 57.648 449.919 57.724 449.679 57.876C449.439 58.028 449.319 58.24 449.319 58.512C449.319 58.704 449.359 58.856 449.439 58.968C449.527 59.08 449.679 59.168 449.895 59.232C450.111 59.296 450.423 59.34 450.831 59.364C451.743 59.42 452.387 59.596 452.763 59.892C453.139 60.18 453.327 60.62 453.327 61.212C453.327 61.82 453.099 62.3 452.643 62.652C452.195 62.996 451.575 63.168 450.783 63.168ZM460.414 59.832C460.414 59.976 460.41 60.084 460.402 60.156H455.458C455.498 60.804 455.69 61.308 456.034 61.668C456.386 62.028 456.862 62.208 457.462 62.208C457.87 62.208 458.222 62.128 458.518 61.968C458.822 61.808 459.05 61.592 459.202 61.32H460.33C460.146 61.864 459.786 62.308 459.25 62.652C458.722 62.996 458.122 63.168 457.45 63.168C456.85 63.168 456.314 63.032 455.842 62.76C455.378 62.488 455.014 62.104 454.75 61.608C454.494 61.112 454.366 60.544 454.366 59.904C454.366 59.296 454.498 58.752 454.762 58.272C455.026 57.784 455.39 57.404 455.854 57.132C456.318 56.86 456.846 56.724 457.438 56.724C458.022 56.724 458.538 56.852 458.986 57.108C459.434 57.364 459.782 57.728 460.03 58.2C460.286 58.664 460.414 59.208 460.414 59.832ZM457.438 57.684C456.91 57.684 456.478 57.824 456.142 58.104C455.806 58.376 455.59 58.772 455.494 59.292H459.274C459.194 58.764 458.998 58.364 458.686 58.092C458.382 57.82 457.966 57.684 457.438 57.684ZM464.465 63C463.961 63 463.573 62.872 463.301 62.616C463.037 62.352 462.905 61.992 462.905 61.536V54.96H461.885V54H463.985V61.44C463.985 61.64 464.037 61.792 464.141 61.896C464.245 61.992 464.385 62.04 464.561 62.04H465.233V63H464.465ZM472.121 59.832C472.121 59.976 472.117 60.084 472.109 60.156H467.165C467.205 60.804 467.397 61.308 467.741 61.668C468.093 62.028 468.569 62.208 469.169 62.208C469.577 62.208 469.929 62.128 470.225 61.968C470.529 61.808 470.757 61.592 470.909 61.32H472.037C471.853 61.864 471.493 62.308 470.957 62.652C470.429 62.996 469.829 63.168 469.157 63.168C468.557 63.168 468.021 63.032 467.549 62.76C467.085 62.488 466.721 62.104 466.457 61.608C466.201 61.112 466.073 60.544 466.073 59.904C466.073 59.296 466.205 58.752 466.469 58.272C466.733 57.784 467.097 57.404 467.561 57.132C468.025 56.86 468.553 56.724 469.145 56.724C469.729 56.724 470.245 56.852 470.693 57.108C471.141 57.364 471.489 57.728 471.737 58.2C471.993 58.664 472.121 59.208 472.121 59.832ZM469.145 57.684C468.617 57.684 468.185 57.824 467.849 58.104C467.513 58.376 467.297 58.772 467.201 59.292H470.981C470.901 58.764 470.705 58.364 470.393 58.092C470.089 57.82 469.673 57.684 469.145 57.684ZM479.28 61.02C479.096 61.7 478.752 62.228 478.248 62.604C477.744 62.98 477.136 63.168 476.424 63.168C475.808 63.168 475.26 63.032 474.78 62.76C474.308 62.48 473.94 62.096 473.676 61.608C473.412 61.112 473.28 60.556 473.28 59.94C473.28 59.324 473.412 58.772 473.676 58.284C473.94 57.796 474.308 57.416 474.78 57.144C475.26 56.864 475.808 56.724 476.424 56.724C477.136 56.724 477.74 56.916 478.236 57.3C478.74 57.676 479.088 58.212 479.28 58.908H478.188C477.836 58.108 477.248 57.708 476.424 57.708C475.8 57.708 475.304 57.912 474.936 58.32C474.568 58.728 474.384 59.268 474.384 59.94C474.384 60.612 474.568 61.156 474.936 61.572C475.304 61.98 475.8 62.184 476.424 62.184C477.256 62.184 477.84 61.796 478.176 61.02H479.28ZM482.842 63C482.266 63 481.826 62.86 481.522 62.58C481.226 62.292 481.078 61.892 481.078 61.38V57.852H479.866V56.88H481.078V54.828H482.158V56.88H484.258V57.852H482.158V61.248C482.158 61.512 482.226 61.712 482.362 61.848C482.498 61.976 482.678 62.04 482.902 62.04H484.294V63H482.842ZM491.596 56.88C492.188 56.88 492.644 57.028 492.964 57.324C493.284 57.612 493.444 58.024 493.444 58.56V63H492.376V62.088C492.144 62.432 491.832 62.7 491.44 62.892C491.048 63.076 490.604 63.168 490.108 63.168C489.476 63.168 488.964 63 488.572 62.664C488.188 62.328 487.996 61.888 487.996 61.344C487.996 60.856 488.148 60.46 488.452 60.156C488.756 59.844 489.184 59.644 489.736 59.556L492.376 59.148V58.68C492.376 58.408 492.304 58.204 492.16 58.068C492.024 57.924 491.828 57.852 491.572 57.852H488.572V56.88H491.596ZM490.336 62.292C490.792 62.292 491.208 62.176 491.584 61.944C491.968 61.704 492.232 61.396 492.376 61.02V60.012L490.12 60.384C489.432 60.496 489.088 60.816 489.088 61.344C489.088 61.64 489.2 61.872 489.424 62.04C489.648 62.208 489.952 62.292 490.336 62.292ZM497.615 57.852V56.88H498.815V55.656C498.815 55.136 498.971 54.732 499.283 54.444C499.595 54.148 500.047 54 500.639 54H502.367V54.96H500.711C500.455 54.96 500.255 55.028 500.111 55.164C499.967 55.292 499.895 55.496 499.895 55.776V56.88H501.455V57.852H499.895V63H498.815V57.852H497.615ZM503.339 55.608V54H504.419V55.608H503.339ZM503.339 57.852H502.175V56.88H504.419V63H503.339V57.852ZM509.23 63C508.726 63 508.338 62.872 508.066 62.616C507.802 62.352 507.67 61.992 507.67 61.536V54.96H506.65V54H508.75V61.44C508.75 61.64 508.802 61.792 508.906 61.896C509.01 61.992 509.15 62.04 509.326 62.04H509.998V63H509.23ZM516.886 59.832C516.886 59.976 516.882 60.084 516.874 60.156H511.93C511.97 60.804 512.162 61.308 512.506 61.668C512.858 62.028 513.334 62.208 513.934 62.208C514.342 62.208 514.694 62.128 514.99 61.968C515.294 61.808 515.522 61.592 515.674 61.32H516.802C516.618 61.864 516.258 62.308 515.722 62.652C515.194 62.996 514.594 63.168 513.922 63.168C513.322 63.168 512.786 63.032 512.314 62.76C511.85 62.488 511.486 62.104 511.222 61.608C510.966 61.112 510.838 60.544 510.838 59.904C510.838 59.296 510.97 58.752 511.234 58.272C511.498 57.784 511.862 57.404 512.326 57.132C512.79 56.86 513.318 56.724 513.91 56.724C514.494 56.724 515.01 56.852 515.458 57.108C515.906 57.364 516.254 57.728 516.502 58.2C516.758 58.664 516.886 59.208 516.886 59.832ZM513.91 57.684C513.382 57.684 512.95 57.824 512.614 58.104C512.278 58.376 512.062 58.772 511.966 59.292H515.746C515.666 58.764 515.47 58.364 515.158 58.092C514.854 57.82 514.438 57.684 513.91 57.684ZM460.65 79.168C460.042 79.168 459.502 79.032 459.03 78.76C458.558 78.48 458.19 78.096 457.926 77.608C457.662 77.112 457.53 76.556 457.53 75.94C457.53 75.324 457.662 74.772 457.926 74.284C458.19 73.796 458.558 73.416 459.03 73.144C459.502 72.864 460.042 72.724 460.65 72.724C461.266 72.724 461.81 72.864 462.282 73.144C462.754 73.416 463.122 73.796 463.386 74.284C463.65 74.772 463.782 75.324 463.782 75.94C463.782 76.556 463.65 77.112 463.386 77.608C463.122 78.096 462.754 78.48 462.282 78.76C461.81 79.032 461.266 79.168 460.65 79.168ZM460.65 78.184C461.266 78.184 461.758 77.98 462.126 77.572C462.494 77.156 462.678 76.612 462.678 75.94C462.678 75.268 462.494 74.728 462.126 74.32C461.758 73.912 461.266 73.708 460.65 73.708C460.034 73.708 459.542 73.912 459.174 74.32C458.814 74.728 458.634 75.268 458.634 75.94C458.634 76.612 458.814 77.156 459.174 77.572C459.542 77.98 460.034 78.184 460.65 78.184ZM468.835 72.88V73.852H468.175C467.751 73.852 467.387 73.936 467.083 74.104C466.779 74.272 466.543 74.496 466.375 74.776V79H465.295V72.88H466.375V73.852C466.583 73.548 466.847 73.312 467.167 73.144C467.487 72.968 467.847 72.88 468.247 72.88H468.835ZM472.549 73.852V72.88H473.749V71.656C473.749 71.136 473.905 70.732 474.217 70.444C474.529 70.148 474.981 70 475.573 70H477.301V70.96H475.645C475.389 70.96 475.189 71.028 475.045 71.164C474.901 71.292 474.829 71.496 474.829 71.776V72.88H476.689V73.852H474.829V79H473.749V73.852H472.549ZM480.408 79.168C479.8 79.168 479.26 79.032 478.788 78.76C478.316 78.48 477.948 78.096 477.684 77.608C477.42 77.112 477.288 76.556 477.288 75.94C477.288 75.324 477.42 74.772 477.684 74.284C477.948 73.796 478.316 73.416 478.788 73.144C479.26 72.864 479.8 72.724 480.408 72.724C481.024 72.724 481.568 72.864 482.04 73.144C482.512 73.416 482.88 73.796 483.144 74.284C483.408 74.772 483.54 75.324 483.54 75.94C483.54 76.556 483.408 77.112 483.144 77.608C482.88 78.096 482.512 78.48 482.04 78.76C481.568 79.032 481.024 79.168 480.408 79.168ZM480.408 78.184C481.024 78.184 481.516 77.98 481.884 77.572C482.252 77.156 482.436 76.612 482.436 75.94C482.436 75.268 482.252 74.728 481.884 74.32C481.516 73.912 481.024 73.708 480.408 73.708C479.792 73.708 479.3 73.912 478.932 74.32C478.572 74.728 478.392 75.268 478.392 75.94C478.392 76.612 478.572 77.156 478.932 77.572C479.3 77.98 479.792 78.184 480.408 78.184ZM487.633 79C487.129 79 486.741 78.872 486.469 78.616C486.205 78.352 486.073 77.992 486.073 77.536V70.96H485.053V70H487.153V77.44C487.153 77.64 487.205 77.792 487.309 77.896C487.413 77.992 487.553 78.04 487.729 78.04H488.401V79H487.633ZM495.205 70V79H494.149V78.136C493.925 78.472 493.641 78.728 493.297 78.904C492.953 79.08 492.557 79.168 492.109 79.168C491.565 79.168 491.073 79.032 490.633 78.76C490.201 78.488 489.861 78.108 489.613 77.62C489.365 77.132 489.241 76.572 489.241 75.94C489.241 75.316 489.365 74.76 489.613 74.272C489.861 73.784 490.201 73.404 490.633 73.132C491.073 72.86 491.565 72.724 492.109 72.724C492.989 72.724 493.669 73.064 494.149 73.744V70H495.205ZM492.265 78.172C492.705 78.172 493.085 78.06 493.405 77.836C493.725 77.604 493.973 77.292 494.149 76.9V74.98C493.973 74.588 493.725 74.28 493.405 74.056C493.093 73.832 492.713 73.72 492.265 73.72C491.697 73.72 491.233 73.924 490.873 74.332C490.521 74.732 490.345 75.268 490.345 75.94C490.345 76.628 490.521 77.172 490.873 77.572C491.233 77.972 491.697 78.172 492.265 78.172ZM502.671 75.832C502.671 75.976 502.667 76.084 502.659 76.156H497.715C497.755 76.804 497.947 77.308 498.291 77.668C498.643 78.028 499.119 78.208 499.719 78.208C500.127 78.208 500.479 78.128 500.775 77.968C501.079 77.808 501.307 77.592 501.459 77.32H502.587C502.403 77.864 502.043 78.308 501.507 78.652C500.979 78.996 500.379 79.168 499.707 79.168C499.107 79.168 498.571 79.032 498.099 78.76C497.635 78.488 497.271 78.104 497.007 77.608C496.751 77.112 496.623 76.544 496.623 75.904C496.623 75.296 496.755 74.752 497.019 74.272C497.283 73.784 497.647 73.404 498.111 73.132C498.575 72.86 499.103 72.724 499.695 72.724C500.279 72.724 500.795 72.852 501.243 73.108C501.691 73.364 502.039 73.728 502.287 74.2C502.543 74.664 502.671 75.208 502.671 75.832ZM499.695 73.684C499.167 73.684 498.735 73.824 498.399 74.104C498.063 74.376 497.847 74.772 497.751 75.292H501.531C501.451 74.764 501.255 74.364 500.943 74.092C500.639 73.82 500.223 73.684 499.695 73.684ZM507.682 72.88V73.852H507.022C506.598 73.852 506.234 73.936 505.93 74.104C505.626 74.272 505.39 74.496 505.222 74.776V79H504.142V72.88H505.222V73.852C505.43 73.548 505.694 73.312 506.014 73.144C506.334 72.968 506.694 72.88 507.094 72.88H507.682Z" fill="#8E9AA0"/>
<rect x="0.5" y="0.5" width="964" height="115" rx="3.5" stroke="#8E9AA0" stroke-dasharray="12 12"/>
</svg>
