<svg width="24" height="24" viewBox="0 0 24 24" fill="none" xmlns="http://www.w3.org/2000/svg">
<path d="M11.111 12.0001H20" stroke="#1D252D" stroke-linecap="round" stroke-linejoin="round"/>
<path d="M7.03449 10.7433C7.72872 11.4376 7.72872 12.5629 7.03449 13.2571C6.34025 13.9514 5.21491 13.9514 4.52067 13.2571C3.82644 12.5629 3.82644 11.4376 4.52067 10.7433C5.21491 10.0491 6.34025 10.0491 7.03449 10.7433" stroke="#1D252D" stroke-linecap="round" stroke-linejoin="round"/>
<path d="M11.111 5.77746H20" stroke="#1D252D" stroke-linecap="round" stroke-linejoin="round"/>
<path d="M4.01758 5.34046L5.48693 6.66315L8.44431 4" stroke="#1D252D" stroke-linecap="round" stroke-linejoin="round"/>
<path d="M11.111 18.2228H20" stroke="#1D252D" stroke-linecap="round" stroke-linejoin="round"/>
<path d="M7.03449 16.966C7.72872 17.6602 7.72872 18.7856 7.03449 19.4798C6.34025 20.174 5.21491 20.174 4.52067 19.4798C3.82644 18.7856 3.82644 17.6602 4.52067 16.966C5.21491 16.2718 6.34025 16.2718 7.03449 16.966" stroke="#1D252D" stroke-linecap="round" stroke-linejoin="round"/>
</svg>
