<svg width="20" height="15" viewBox="0 0 20 15" fill="none" xmlns="http://www.w3.org/2000/svg">
<path d="M1 15V15C1 12.791 2.791 11 5 11H9C11.209 11 13 12.791 13 15V15" stroke="#1D252D" stroke-linecap="round" stroke-linejoin="round"/>
<path d="M14 1.65137C15.381 1.65137 16.5 2.77037 16.5 4.15137C16.5 5.53237 15.381 6.65137 14 6.65137" stroke="#1D252D" stroke-linecap="round" stroke-linejoin="round"/>
<path d="M9.40493 1.99613C10.7331 3.3243 10.7331 5.4777 9.40493 6.80587C8.07676 8.13404 5.92336 8.13404 4.59519 6.80587C3.26702 5.4777 3.26702 3.3243 4.59519 1.99613C5.92336 0.667957 8.07676 0.667957 9.40493 1.99613" stroke="#1D252D" stroke-linecap="round" stroke-linejoin="round"/>
<path d="M15 10C17.209 10 19 11.791 19 14V14" stroke="#1D252D" stroke-linecap="round" stroke-linejoin="round"/>
</svg>
