<svg width="16" height="18" viewBox="0 0 16 18" fill="none" xmlns="http://www.w3.org/2000/svg">
<path d="M5.78711 14.6396V14.964C5.78711 16.0884 6.77766 17.0004 7.99992 17.0004V17.0004C9.22218 17.0004 10.2127 16.0884 10.2127 14.9631V14.6387" stroke="#1D252D" stroke-linecap="round" stroke-linejoin="round"/>
<path d="M9.76883 3.44533V2.62933C9.76883 1.72978 8.97716 1 7.99916 1V1C7.02116 1 6.22949 1.72978 6.22949 2.62933V3.44533" stroke="#1D252D" stroke-linecap="round" stroke-linejoin="round"/>
<path fill-rule="evenodd" clip-rule="evenodd" d="M2.75036 7.38888V7.38888C2.75036 5.16399 4.70926 3.36133 7.12482 3.36133H8.87518C11.2917 3.36133 13.2496 5.16488 13.2496 7.38888V7.38888V9.87511C13.2496 10.3462 13.4533 10.7987 13.8154 11.132L14.4342 11.7018C14.7963 12.0351 15 12.4875 15 12.9587V12.9587C15 13.8867 14.1832 14.6387 13.1753 14.6387H2.8247C1.81677 14.6387 1 13.8867 1 12.9587V12.9587C1 12.4875 1.20371 12.0351 1.56575 11.7018L2.18461 11.132C2.54665 10.7987 2.75036 10.3462 2.75036 9.87511V7.38888Z" stroke="#1D252D" stroke-linecap="round" stroke-linejoin="round"/>
</svg>
