<?xml version="1.0" encoding="UTF-8" standalone="no"?>
<!-- Generator: Adobe Illustrator 24.0.1, SVG Export Plug-In . SVG Version: 6.00 Build 0)  -->

<svg
   version="1.1"
   id="Layer_1"
   x="0px"
   y="0px"
   viewBox="0 0 552.09998 275.79999"
   xml:space="preserve"
   sodipodi:docname="STC-01.svg"
   width="552.09998"
   height="275.79999"
   inkscape:version="1.1 (c68e22c387, 2021-05-23)"
   xmlns:inkscape="http://www.inkscape.org/namespaces/inkscape"
   xmlns:sodipodi="http://sodipodi.sourceforge.net/DTD/sodipodi-0.dtd"
   xmlns="http://www.w3.org/2000/svg"
   xmlns:svg="http://www.w3.org/2000/svg"><defs
   id="defs25" /><sodipodi:namedview
   id="namedview23"
   pagecolor="#ffffff"
   bordercolor="#666666"
   borderopacity="1.0"
   inkscape:pageshadow="2"
   inkscape:pageopacity="0.0"
   inkscape:pagecheckerboard="0"
   showgrid="false"
   inkscape:zoom="0.773"
   inkscape:cx="276.19664"
   inkscape:cy="137.7749"
   inkscape:window-width="1920"
   inkscape:window-height="991"
   inkscape:window-x="-9"
   inkscape:window-y="-9"
   inkscape:window-maximized="1"
   inkscape:current-layer="Layer_1" />
<style
   type="text/css"
   id="style18">
	.st0{fill:#502C84;}
</style>
<path
   class="st0"
   d="m 90.7,275.8 c 28.8,0 52.4,-9 67.9,-24.1 11.6,-11.6 18.5,-27.1 18.5,-45.1 0,-16.3 -6,-30.9 -17.2,-42.1 -11.2,-11.2 -27.1,-19.3 -47.3,-23.2 L 79.5,134.9 C 65.8,132.3 58,125.5 58,116 58,103.6 70,95 89.4,95 c 12,0 22.3,3.9 29.2,10.7 4.3,4.7 7.3,10.8 8.2,17.6 l 47.7,-10.7 C 173.2,98.9 166.8,86.8 156.9,76.9 141.4,61.4 117.4,51.6 89,51.6 c -26.2,0 -48.1,8.6 -63.2,22.3 -12.9,12 -20.2,28.4 -20.2,46.4 0,15.9 5.2,29.2 15.5,39.5 10.3,10.3 25.4,18 45.1,22.8 l 32.7,7.7 c 16.3,3.9 23.6,9.9 23.6,20.6 0,13.3 -12,21.1 -31.8,21.1 -14.2,0 -25.8,-4.7 -33.1,-12.5 -5.2,-5.2 -8.2,-12 -8.6,-19.8 L 0,210.4 c 1.3,14.6 8.2,27.5 18.5,37.8 16.4,17.3 42.6,27.6 72.2,27.6 m 362.6,0 c 31.8,0 56.3,-11.6 73,-27.9 13.3,-12.9 21.5,-27.9 25.8,-43.4 l -50.3,-16.8 c -2.1,7.7 -6.4,15.9 -13.3,22.3 -8.2,7.7 -19.3,13.3 -35.2,13.3 -14.6,0 -28.4,-5.6 -38.3,-15.5 -9.9,-10.3 -15.9,-25.4 -15.9,-44.3 0,-19.3 6,-33.9 15.9,-44.2 9.9,-9.9 23.2,-15 37.8,-15 15.5,0 26.2,5.2 33.9,12.9 6.4,6.5 10.3,14.6 12.9,22.8 l 51.1,-17.2 c -3.9,-15 -12,-30.1 -24.1,-42.5 -17.2,-16.8 -42.1,-28.8 -75.2,-28.8 -30.5,0 -58,11.6 -77.8,31.4 -19.5,20.2 -31.5,48.1 -31.5,80.8 0,32.7 12.5,60.6 32.6,80.8 19.8,19.7 47.7,31.3 78.6,31.3 m -173.5,0 c 22.3,0 38.2,-6.9 45.1,-12.9 v -46.4 c -5.2,3.9 -15.5,8.6 -28.8,8.6 -9.5,0 -16.3,-2.2 -21.5,-6.9 -4.3,-4.3 -6.4,-11.6 -6.4,-21.5 V 0 h -56.7 v 58 h 113.4 v 55 H 211.4 v 97.5 c 0,19.8 6,35.7 16.8,46.8 12,12.1 29.6,18.5 51.6,18.5"
   id="path20" />
</svg>
